<?xml version="1.0" standalone="no"?>
<!DOCTYPE svg PUBLIC "-//W3C//DTD SVG 1.1//EN" "http://www.w3.org/Graphics/SVG/1.1/DTD/svg11.dtd" >
<svg xmlns="http://www.w3.org/2000/svg">
<metadata>Generated by IcoMoon</metadata>
<defs>
<font id="icofont" horiz-adv-x="1024">
<font-face units-per-em="1024" ascent="960" descent="-64" />
<missing-glyph horiz-adv-x="1024" />
<glyph unicode="&#x20;" horiz-adv-x="512" d="" />
<glyph unicode="&#xe900;" glyph-name="down-arrow" d="M962.878 685.346c-12.701 12.701-33.34 12.701-46.040 0l-404.837-405.631-405.631 405.631c-12.701 12.701-33.34 12.701-46.040 0s-12.701-33.34 0-46.040l427.857-427.857c6.35-6.35 14.288-9.526 23.020-9.526 7.938 0 16.67 3.175 23.020 9.526l427.857 427.857c13.495 12.701 13.495 33.34 0.794 46.040z" />
<glyph unicode="&#xe901;" glyph-name="left-arrow" d="M703.305-2.878c6.35-6.35 14.288-9.526 23.020-9.526s16.67 3.175 23.020 9.526c12.701 12.701 12.701 33.34 0 46.040l-404.837 404.837 404.837 404.837c12.701 12.701 12.701 33.34 0 46.040s-33.34 12.701-46.040 0l-428.651-427.857c-12.701-12.701-12.701-33.34 0-46.040l428.651-427.857z" />
<glyph unicode="&#xe902;" glyph-name="right-arrow" d="M320.695-2.878c-6.35-6.35-14.288-9.526-23.020-9.526s-16.67 3.175-23.020 9.526c-12.701 12.701-12.701 33.34 0 46.040l404.837 404.837-404.837 404.837c-12.701 12.701-12.701 33.34 0 46.040s33.34 12.701 46.040 0l427.857-427.857c12.701-12.701 12.701-33.34 0-46.040l-427.857-427.857z" />
<glyph unicode="&#xe903;" glyph-name="up-arrow" d="M53.632 187.264l456.96 453.248 457.28-453.552c6.352-6.304 14.672-9.44 22.976-9.44 8.32 0 16.64 3.136 22.976 9.44 12.688 12.592 12.688 32.992 0 45.584l-479.68 475.76c-3.2 3.2-7.904 6-12.112 7.6-12 4.512-25.552 1.712-34.656-7.296l-479.712-475.76c-12.688-12.592-12.688-32.992 0-45.584 12.704-12.576 33.264-12.576 45.968 0z" />
<glyph unicode="&#xe904;" glyph-name="cart" d="M1002.878 734.515h-597.126c-19.443 0-30.51-15.032-24.744-33.605l94.463-276.712c4.653-14.931 21.122-27.030 36.761-27.030h391.488c15.639 0 32.088 12.099 36.701 27.030l82.324 283.247c4.694 14.951-4.188 27.070-19.868 27.070zM549.075 78.393c0-49.332-39.992-89.324-89.324-89.324s-89.324 39.992-89.324 89.324c0 49.332 39.992 89.324 89.324 89.324s89.324-39.992 89.324-89.324zM927.048 77.28c0-49.332-39.992-89.324-89.324-89.324s-89.324 39.992-89.324 89.324c0 49.332 39.992 89.324 89.324 89.324s89.324-39.992 89.324-89.324zM944.974 306.265h-522.409l-209.138 601.779h-162.847c-27.94 0-50.58-22.64-50.58-50.58s22.64-50.58 50.58-50.58h90.902l209.138-601.779h594.354c27.94 0 50.58 22.64 50.58 50.58s-22.64 50.58-50.58 50.58z" />
<glyph unicode="&#xe905;" glyph-name="cancel" d="M633.703 448l365.094 365.094c33.607 33.607 33.607 88.095 0 121.698-33.607 33.607-88.091 33.607-121.698 0l-365.099-365.099-365.099 365.104c-33.607 33.607-88.091 33.607-121.698 0-33.603-33.607-33.603-88.095 0-121.698l365.099-365.094-365.099-365.099c-33.603-33.607-33.603-88.095 0-121.698 33.607-33.607 88.091-33.607 121.698 0l365.099 365.099 365.099-365.099c33.603-33.607 88.091-33.607 121.698 0s33.607 88.091 0 121.698l-365.094 365.094z" />
<glyph unicode="&#xe906;" glyph-name="user" d="M819.439 228.028l-163.038 81.51c-15.377 7.697-24.934 23.159-24.934 40.363v57.702c3.908 4.779 8.021 10.223 12.271 16.23 21.146 29.867 38.093 63.113 50.415 98.97 24.081 11.042 39.714 34.85 39.714 61.73v68.267c0 16.435-6.144 32.358-17.067 44.8v90.778c0.956 9.387 4.71 65.263-35.703 111.36-35.055 39.987-91.938 60.262-169.097 60.262s-134.042-20.275-169.097-60.245c-40.414-46.097-36.659-101.99-35.703-111.377v-90.778c-10.923-12.442-17.067-28.365-17.067-44.8v-68.267c0-20.77 9.438-40.141 25.549-53.060 15.633-61.901 48.35-108.544 59.785-123.511v-56.474c0-16.521-9.011-31.676-23.501-39.595l-152.252-83.046c-49.51-27.017-80.247-78.797-80.247-135.185v-55.262c0-80.998 256.768-102.4 392.533-102.4s392.533 21.402 392.533 102.4v51.934c0 58.675-32.614 111.445-85.094 137.694z" />
<glyph unicode="&#xe907;" glyph-name="park" d="M821.463 409.049c-4.011 0-8.127-0.575-12.231-1.705l-23.227-6.393-29.722 72.393c-13.676 33.316-54.103 60.427-90.116 60.427h-308.814c-36.013 0-76.441-27.111-90.116-60.427l-29.669-72.275-22.79 6.275c-4.108 1.13-8.225 1.705-12.236 1.705-21.97 0-37.918-16.781-37.918-39.905v-0.853c0-23.863 17.172-43.765 39.799-48.065-12.358-31.166-22.292-82.087-22.292-114.869v-150.36c0-26.992 21.966-48.959 48.959-48.959h28.208c26.992 0 48.959 21.966 48.959 48.959v31.386h407.017v-31.386c0-26.992 21.966-48.959 48.959-48.959h28.208c26.992 0 48.959 21.966 48.959 48.959v150.36c0 32.761-9.922 83.637-22.268 114.8 22.851 4.129 40.252 24.12 40.252 48.138v0.853c0 23.117-15.948 39.901-37.918 39.901zM269.043 350.805l47.204 115.004c8.18 19.93 32.5 36.233 54.038 36.233h282.948c21.538 0 45.858-16.303 54.038-36.233l47.212-115.004c8.18-19.93-2.754-36.233-24.292-36.233h-436.857c-21.538 0-32.472 16.307-24.292 36.233zM387.38 178.141c0-10.771-8.813-19.583-19.583-19.583h-94.041c-10.771 0-19.583 8.813-19.583 19.583v40.020c0 10.771 8.813 19.583 19.583 19.583h94.045c10.771 0 19.583-8.813 19.583-19.583v-40.020zM768.371 178.141c0-10.771-8.813-19.583-19.583-19.583h-94.045c-10.771 0-19.583 8.813-19.583 19.583v40.020c0 10.771 8.813 19.583 19.583 19.583h94.045c10.771 0 19.583-8.813 19.583-19.583v-40.020zM932.203 905.885h-840.406c-50.615 0-91.797-41.178-91.797-91.797v-772.969c0-28.163 22.835-50.998 50.998-50.998s50.998 22.835 50.998 50.998v540.188h820.006v-540.192c0-28.163 22.835-50.998 50.998-50.998s50.998 22.835 50.998 50.998v772.973c0 50.615-41.178 91.797-91.797 91.797zM101.997 698.549h820.006v-17.825h-820.006v17.825zM101.997 739.348v14.308h820.006v-14.308h-820.006zM101.997 622.105v17.821h820.006v-17.821h-820.006z" />
<glyph unicode="&#xe908;" glyph-name="search" d="M134.148-41.239l211.068 211.077c73.43-50.868 155.291-76.314 245.538-76.314 58.666 0 114.773 11.389 168.309 34.168 53.545 22.763 99.696 53.536 138.466 92.305s69.542 84.914 92.308 138.448c22.772 53.551 34.157 109.654 34.157 168.32 0 58.662-11.385 114.769-34.157 168.305-22.765 53.545-53.538 99.696-92.308 138.466-38.769 38.774-84.93 69.542-138.466 92.31-53.542 22.77-109.643 34.155-168.309 34.155-58.662 0-114.75-11.385-168.301-34.155-53.536-22.765-99.681-53.536-138.45-92.31-38.782-38.769-69.542-84.93-92.32-138.466-22.768-53.542-34.15-109.643-34.15-168.305 0-90.266 25.449-172.114 76.312-245.548l-210.456-211.077c-15.586-14.769-23.384-33.206-23.384-55.379 0-21.332 7.796-39.804 23.384-55.381 15.584-15.584 34.047-23.382 55.379-23.382 21.731-0.006 40.201 7.583 55.381 22.763zM396.005 331.994c-53.956 53.948-80.933 118.866-80.933 194.771 0 75.892 26.984 140.811 80.933 194.763 53.948 53.952 118.858 80.927 194.763 80.927 75.892 0 140.821-26.981 194.763-80.927 53.954-53.941 80.927-118.871 80.927-194.763 0-75.896-26.984-140.815-80.927-194.771-53.941-53.956-118.871-80.931-194.763-80.931-75.905 0-140.815 26.984-194.763 80.931z" />
<glyph unicode="&#xe909;" glyph-name="tire" d="M286.168 528.592c-97.568 0-176.941-79.373-176.941-176.933 0-97.568 79.377-176.945 176.941-176.945 97.568 0 176.941 79.381 176.941 176.945 0.004 97.56-79.373 176.933-176.941 176.933zM440.45 362.932h-85.922c-1.755 10.841-6.008 20.828-12.184 29.381l60.641 60.641c21.277-24.499 34.979-55.72 37.464-90.022zM297.274 505.944c34.278-2.445 65.482-16.087 89.998-37.3l-60.629-60.629c-8.544 6.176-18.532 10.428-29.369 12.184v85.745zM275.067 505.944v-85.745c-10.841-1.759-20.828-6.012-29.373-12.192l-60.629 60.633c24.511 21.213 55.724 34.855 90.002 37.304zM169.347 452.95l60.649-60.645c-6.176-8.548-10.424-18.536-12.18-29.373h-85.926c2.481 34.298 16.179 65.514 37.456 90.018zM131.862 340.725h85.95c1.755-10.833 6.008-20.816 12.18-29.365l-60.805-60.809c-21.257 24.555-34.911 55.832-37.324 90.174zM275.067 197.36c-34.366 2.449-65.651 16.159-90.194 37.472l60.825 60.825c8.544-6.172 18.532-10.424 29.369-12.18v-86.118zM235.959 351.83c0 27.738 22.483 50.225 50.209 50.225 27.734 0 50.213-22.487 50.213-50.225 0-27.73-22.479-50.205-50.213-50.205-27.726-0.004-50.209 22.475-50.209 50.205zM297.274 197.36v86.114c10.837 1.755 20.82 6.004 29.369 12.18l60.821-60.825c-24.543-21.305-55.828-35.016-90.19-37.468zM403.154 250.547l-60.809 60.809c6.176 8.544 10.428 18.532 12.184 29.369h85.946c-2.409-34.346-16.071-65.623-37.32-90.178zM987.133 671.539c-3.9 0-7.899-0.561-11.895-1.659l-45.199-12.448-46.939 114.345c-13.298 32.391-52.61 58.741-87.621 58.741h-439.284c-35.016 0-74.323-26.351-87.617-58.741l-46.878-114.188-44.634 12.292c-3.996 1.098-7.995 1.659-11.895 1.659-21.365 0-36.867-16.319-36.867-38.807v-26.647c0-5.042 0.802-9.895 2.256-14.452-78.503-51.083-130.56-139.537-130.56-239.975 0-157.801 128.372-286.176 286.168-286.176 124.268 0 230.232 79.638 269.676 190.54h287.427v-56.725c0-26.247 21.353-47.6 47.6-47.6h62.164c26.247 0 47.6 21.353 47.6 47.6v227.158c0 32.539-10.051 83.489-22.407 113.579l-7.575 18.452h5.747c26.247 0 47.6 21.353 47.6 47.6v26.647c0 22.487-15.502 38.807-36.867 38.807zM326.835 757.289c7.951 19.377 31.597 35.228 52.541 35.228h392.922c20.948 0 44.59-15.851 52.541-35.228l71.005-172.95c7.951-19.377-2.673-35.228-23.622-35.228h-379.216c-52.145 54.597-125.558 88.715-206.839 88.715-2.837 0-5.643-0.132-8.464-0.216l49.131 119.679zM286.168 148.402c-112.249 0-203.256 91.004-203.256 203.26 0 112.245 91.008 203.244 203.256 203.244s203.256-91 203.256-203.244c0-112.257-91.008-203.26-203.256-203.26zM909.018 365.577c0-10.472-8.569-19.041-19.041-19.041h-134.872c-10.472 0-19.041 8.569-19.041 19.041v64.733c0 10.472 8.569 19.041 19.041 19.041h134.872c10.472 0 19.041-8.569 19.041-19.041v-64.733z" />
<glyph unicode="&#xe90a;" glyph-name="service" d="M936.174 836.413l-35.761 35.763c-7.455 7.458-18.754 9.502-28.341 5.152l-192.081-84.795c-7.559-3.439-12.941-10.356-14.423-18.509-1.47-8.175 1.133-16.537 7.001-22.405l143.049-143.049c5.869-5.869 14.231-8.47 22.405-7.001 8.153 1.482 15.070 6.862 18.509 14.423l84.793 192.083c4.35 9.588 2.306 20.885-5.152 28.34zM243.775 322.824l-141.176-141.176c-29.582-29.582-29.582-77.706 0-107.286l35.761-35.761c29.582-29.582 77.706-29.582 107.286 0l141.176 141.176-143.047 143.047zM228.014 127.899c-9.884-9.884-25.882-9.884-35.764 0-9.881 9.884-9.881 25.882 0 35.761l69.652 69.652c9.884 9.886 25.88 9.886 35.761 0 9.884-9.884 9.884-25.878 0-35.761l-69.649-69.652zM494.11 287.063l-143.049 143.049c-19.716 19.716-51.809 19.716-71.524 0s-19.716-51.809 0-71.524l143.049-143.049c19.713-19.716 51.807-19.716 71.524 0 19.716 19.711 19.716 51.807 0 71.524zM744.096 608.571l-71.525 71.525-196.343-196.341c-19.75 19.75-51.77 19.75-71.524 0l-17.882-17.882 143.049-143.049 17.882 17.882c19.75 19.753 19.75 51.772 0 71.524l196.343 196.341zM899.209 275.437c-41.053 41.053-90.417 49.88-147.060 39.758l-114.967 114.955-27.455-27.455c9.040-33.971 0.251-71.266-26.227-97.744l-17.845-17.845 79.12-79.113c-7.978-44.642-7.229-82.505 20.497-123.574 31.995-47.409 87.991-74.356 146.657-66.28 9.699 1.334 17.8 8.060 20.917 17.339s0.713 19.524-6.207 26.448l-34.778 34.717v71.515h71.591l34.584-34.586c6.936-6.936 17.209-9.323 26.495-6.18 9.289 3.142 15.994 11.28 17.299 21.001 6.175 45.998-8.873 93.312-42.621 127.043zM378.865 688.571c10.036 56.051 1.91 105.359-39.758 147.058-28.351 28.35-66.284 43.958-106.809 43.958-6.823 0-13.573-0.445-20.236-1.327-9.729-1.291-17.874-8.005-21.020-17.302-3.146-9.294-0.743-19.571 6.196-26.511l34.925-34.577v-72.011h-71.874l-34.665 35.151c-6.924 6.924-17.179 9.32-26.462 6.196-9.279-3.124-15.991-11.233-17.324-20.935-7.704-56.101 16.604-113.096 66.201-146.577 41.223-27.773 79.314-28.461 123.622-20.473l79.44-79.57 17.852 17.852c26.478 26.478 63.772 35.264 97.742 26.227l27.443 27.443-115.274 115.4z" />
<glyph unicode="&#xe90b;" glyph-name="down-arrow2" d="M0 703.166l512.001-510.334 511.999 510.334z" />
<glyph unicode="&#xe90c;" glyph-name="facebook" d="M590.924 624.472v88.231c0 13.245 0.609 23.505 1.848 30.752 1.234 7.258 4.041 14.397 8.399 21.444 4.351 7.043 11.395 11.905 21.124 14.599 9.741 2.699 22.686 4.044 38.848 4.044h88.227v176.458h-141.047c-81.613 0-140.229-19.363-175.855-58.089-35.622-38.735-53.432-95.79-53.432-171.187v-106.249h-105.644v-176.471h105.638v-511.999h211.894v511.997h141.038l18.643 176.471h-159.679z" />
<glyph unicode="&#xe90d;" glyph-name="linkedin" d="M1024 337.332v-378.579h-219.476v353.224c0 88.733-31.745 149.29-111.188 149.29-60.645 0-96.735-40.811-112.612-80.288-5.79-14.113-7.28-33.757-7.28-53.512v-368.714h-219.55c0 0 2.957 598.246 0 660.229h219.529v-93.585c-0.445-0.7-1.024-1.455-1.443-2.133h1.443v2.133c29.167 44.922 81.255 109.095 197.845 109.095 144.447 0.002 252.733-94.363 252.733-297.16zM124.235 937.245c-75.108 0-124.235-49.265-124.235-114.050 0-63.373 47.705-114.133 121.321-114.133h1.467c76.562 0 124.177 50.75 124.177 114.133-1.443 64.785-47.615 114.050-122.73 114.050zM13.039-41.247h219.467v660.229h-219.467v-660.229z" />
<glyph unicode="&#xe90e;" glyph-name="instagram" d="M741.403 960h-458.823c-155.814 0-282.579-126.771-282.579-282.585v-458.823c0-155.82 126.765-282.585 282.579-282.585h458.823c155.826 0 282.591 126.771 282.591 282.585v458.823c0.006 155.814-126.765 282.585-282.591 282.585zM933.146 218.591c0-105.723-86.014-191.732-191.738-191.732h-458.829c-105.717-0.006-191.726 86.008-191.726 191.732v458.823c0 105.717 86.008 191.732 191.726 191.732h458.823c105.723 0 191.738-86.014 191.738-191.732v-458.823zM511.997 711.848c-145.493 0-263.857-118.364-263.857-263.857 0-145.487 118.364-263.845 263.857-263.845s263.857 118.358 263.857 263.845c0 145.493-118.364 263.857-263.857 263.857zM511.997 275.005c-95.39 0-173.004 77.601-173.004 172.992 0 95.396 77.607 173.004 173.004 173.004s173.004-77.607 173.004-173.004c0-95.39-77.613-172.992-173.004-172.992zM786.92 788.886c-17.504 0-34.7-7.087-47.062-19.503-12.423-12.356-19.564-29.558-19.564-47.123 0-17.511 7.147-34.706 19.564-47.123 12.356-12.356 29.558-19.503 47.062-19.503 17.565 0 34.706 7.147 47.123 19.503 12.417 12.417 19.503 29.618 19.503 47.123 0 17.565-7.087 34.767-19.503 47.123-12.356 12.417-29.558 19.503-47.123 19.503z" />
<glyph unicode="&#xe90f;" glyph-name="twitter" d="M1024 765.477c-37.689-16.7-78.129-28.026-120.618-33.083 43.384 25.98 76.594 67.187 92.334 116.139-40.696-24.059-85.616-41.529-133.48-50.999-38.328 40.888-92.846 66.356-153.316 66.356-116.010 0-210.072-94.062-210.072-210.009 0-16.444 1.856-32.505 5.44-47.864-174.559 8.768-329.345 92.399-432.941 219.481-18.109-30.971-28.411-67.059-28.411-105.581 0-72.883 37.113-137.191 93.423-174.815-34.426 1.151-66.804 10.621-95.15 26.363v-2.624c0-101.741 72.435-186.652 168.48-205.978-17.597-4.735-36.153-7.359-55.35-7.359-13.565 0-26.683 1.344-39.544 3.904 26.746-83.505 104.301-144.228 196.188-145.893-71.859-56.31-162.466-89.776-260.879-89.776-16.956 0-33.658 1.024-50.102 2.88 92.975-59.702 203.354-94.511 321.988-94.511 386.423 0 597.648 320.069 597.648 597.648l-0.704 27.195c41.271 29.437 76.976 66.421 105.067 108.526z" />
<glyph unicode="&#xe910;" glyph-name="login-(1)" d="M30 538h214v90c0 11.364 6.42 21.75 16.584 26.834 10.164 5.082 22.328 3.984 31.416-2.834l12-9v167c0 16.568 13.432 30 30 30h270v90c0 9.644 4.636 18.698 12.458 24.338 7.824 5.638 17.88 7.172 27.028 4.124l360-120c12.252-4.086 20.514-15.55 20.514-28.462v-724c0-12.914-8.262-24.378-20.514-28.46l-360-120c-9.058-3.022-19.132-1.57-27.028 4.124-7.822 5.636-12.458 14.692-12.458 24.336v90h-270c-16.568 0-30 13.432-30 30v167l-12-9c-9.102-6.826-21.266-7.908-31.416-2.834-10.164 5.082-16.584 15.47-16.584 26.834v90h-214c-16.568 0-30 13.432-30 30v120c0 16.568 13.432 30 30 30zM664 7.624l300 100v680.754l-300 100v-880.754zM364 116h240v664h-240v-182l168-126c7.554-5.666 12-14.558 12-24s-4.446-18.334-12-24l-168-126v-182zM60 418h214c16.568 0 30-13.432 30-30v-60l160 120-160 120v-60c0-16.568-13.432-30-30-30h-214v-60zM724 448c0-16.569 13.431-30 30-30s30 13.431 30 30c0 16.569-13.431 30-30 30s-30-13.431-30-30z" />
<glyph unicode="&#xe914;" glyph-name="menu" d="M924.903 910.452h-825.806c-54.503 0-99.097-44.594-99.097-99.097s44.594-99.097 99.097-99.097h825.806c54.503 0 99.097 44.594 99.097 99.097s-44.594 99.097-99.097 99.097zM924.903 547.097h-825.806c-54.503 0-99.097-44.594-99.097-99.097s44.594-99.097 99.097-99.097h825.806c54.503 0 99.097 44.594 99.097 99.097s-44.594 99.097-99.097 99.097zM924.903 183.742h-825.806c-54.503 0-99.097-44.594-99.097-99.097s44.594-99.097 99.097-99.097h825.806c54.503 0 99.097 44.594 99.097 99.097s-44.594 99.097-99.097 99.097z" />
<glyph unicode="&#xe994;" glyph-name="truck1" d="M825.16 368.626h-20.046c-11.97 0-21.672-9.702-21.672-21.672s9.702-21.672 21.672-21.672h20.046c11.97 0 21.672 9.702 21.672 21.672s-9.702 21.672-21.672 21.672zM224.304 534.418h357.948c11.97 0 21.672 9.702 21.672 21.672s-9.702 21.672-21.672 21.672h-357.948c-11.97 0-21.672-9.702-21.672-21.672s9.706-21.672 21.672-21.672zM143.756 436.894h438.496c11.97 0 21.672 9.702 21.672 21.672s-9.702 21.672-21.672 21.672h-438.496c-11.97 0-21.672-9.702-21.672-21.672s9.706-21.672 21.672-21.672zM143.756 339.37h204.078c11.97 0 21.672 9.702 21.672 21.672s-9.702 21.672-21.672 21.672h-204.078c-11.97 0-21.672-9.702-21.672-21.672s9.706-21.672 21.672-21.672zM1002.328 279.772h-5.418v139.796l-0.036 0.036c-0.006 3.352-0.752 6.712-2.324 9.798l-88.856 174.46c-3.7 7.262-11.158 11.836-19.312 11.836h-160.372v128.94c0 5.748-2.284 11.26-6.348 15.324l-36.3 36.3c-8.462 8.462-22.186 8.462-30.65 0-8.462-8.462-8.462-22.186 0-30.65l29.954-29.95v-54.956h-660.994c-11.97-0.004-21.672-9.706-21.672-21.676v-487.62c0-11.97 9.702-21.672 21.672-21.672h72.96c17.034-33.402 51.75-56.348 91.746-56.348 33.010 0 62.42 15.636 81.27 39.87 18.85-24.234 48.26-39.87 81.27-39.87 39.996 0 74.712 22.944 91.746 56.348h253.196c17.034-33.402 51.75-56.348 91.746-56.348s74.712 22.944 91.746 56.348h124.976c11.97 0 21.672 9.702 21.672 21.672v86.69c0 11.97-9.702 21.672-21.672 21.672zM83.52 193.084h-40.176v43.344h48.224c-5.234-12.33-8.132-25.878-8.132-40.094 0.002-1.090 0.048-2.168 0.084-3.25zM186.378 136.736c-32.864 0-59.598 26.734-59.598 59.598s26.734 59.598 59.598 59.598c32.864 0 59.598-26.734 59.598-59.598 0-32.862-26.734-59.598-59.598-59.598zM348.918 136.736c-32.864 0-59.598 26.734-59.598 59.598s26.734 59.598 59.598 59.598c32.864 0 59.598-26.734 59.598-59.598 0-32.862-26.734-59.598-59.598-59.598zM682.666 193.084h-230.888c0.034 1.082 0.082 2.16 0.082 3.25 0 14.214-2.898 27.764-8.132 40.094h238.938v-43.344zM682.666 279.772h-273.562c-16.942 12.254-37.726 19.504-60.186 19.504-33.010 0-62.42-15.636-81.27-39.87-18.85 24.234-48.26 39.87-81.27 39.87-22.458 0-43.244-7.252-60.186-19.504h-82.848v357.588h639.322v-357.588zM822.45 572.354h50.65l66.78-131.116h-117.43v131.116zM785.608 136.736c-32.864 0-59.598 26.734-59.598 59.598s26.734 59.598 59.598 59.598c32.864 0 59.598-26.734 59.598-59.598 0-32.862-26.734-59.598-59.598-59.598zM845.794 279.772c-16.94 12.254-37.726 19.504-60.186 19.504-22.2 0-42.766-7.088-59.598-19.086v292.164h53.096v-152.788c0-11.97 9.702-21.672 21.672-21.672h152.788v-118.124h-107.772zM980.656 193.084h-92.188c0.034 1.082 0.082 2.16 0.082 3.25 0 14.214-2.898 27.764-8.132 40.094h100.238v-43.344z" />
<glyph unicode="&#xe995;" glyph-name="truck2" d="M98.944 243.097c2.948 2.927 4.633 7.013 4.633 11.161s-1.685 8.234-4.633 11.161c-2.927 2.948-7.013 4.633-11.161 4.633-4.17 0-8.234-1.685-11.161-4.633-2.948-2.927-4.633-7.013-4.633-11.161s1.685-8.234 4.633-11.161c2.927-2.948 7.013-4.633 11.161-4.633s8.234 1.685 11.161 4.633zM211.4 417.046c-2.948-2.927-4.633-7.013-4.633-11.161s1.685-8.234 4.633-11.161c2.927-2.948 7.013-4.633 11.161-4.633s8.234 1.685 11.161 4.633c2.948 2.927 4.633 7.013 4.633 11.161s-1.685 8.234-4.633 11.161c-2.927 2.948-7.013 4.633-11.161 4.633s-8.234-1.685-11.161-4.633zM626.897 270.053c-4.149 0-8.234-1.685-11.161-4.633-2.948-2.927-4.633-7.013-4.633-11.161s1.685-8.234 4.633-11.161c2.927-2.948 7.013-4.633 11.161-4.633s8.234 1.685 11.161 4.633c2.948 2.927 4.633 7.013 4.633 11.161s-1.685 8.234-4.633 11.161c-2.927 2.948-7.013 4.633-11.161 4.633zM222.562 238.464h269.557c8.723 0 15.794 7.072 15.794 15.794s-7.072 15.794-15.794 15.794h-269.557c-8.723 0-15.794-7.072-15.794-15.794s7.072-15.794 15.794-15.794zM1064.927 219.511h-28.912l-166.43 110.954c-11.806 7.872-26.442 10.298-40.156 6.655-13.712-3.641-25.216-13.008-31.559-25.698l-11.349-22.698-44.401 156.156c-4.835 19.819-19.888 35.676-39.246 41.636-1.579 1.026-3.359 1.796-5.309 2.209l-106.016 22.489c-0.069 0.251-0.126 0.501-0.208 0.75l-50.439 151.316c-0.004 0.013-0.008 0.025-0.013 0.040l-10.009 30.022h11.78c8.723 0 15.794 7.072 15.794 15.794s-7.072 15.794-15.794 15.794h-33.943c-0.032 0-0.063 0-0.095 0h-252.366c-36.578 0-66.336-29.759-66.336-66.336v-62.188l-34.967 7.417c-14.981 3.174-30.378-4.675-36.603-18.675l-51.319-115.467c-4.505-10.136-3.586-21.741 2.458-31.043s16.277-14.853 27.371-14.853h30.778l-92.791-105.407c-18.463-15.27-30.247-38.344-30.247-64.119 0-45.867 37.317-83.184 83.184-83.184h539.114c45.867 0 83.184 37.317 83.184 83.184 0 4.524-0.377 8.961-1.074 13.293l38.793-71.376c0.067-0.124 0.154-0.232 0.225-0.354 0.078-0.133 0.135-0.276 0.217-0.406 0.124-0.202 0.276-0.381 0.409-0.575 0.187-0.274 0.373-0.548 0.573-0.809 0.221-0.284 0.457-0.548 0.695-0.813 0.23-0.257 0.457-0.518 0.701-0.758 0.242-0.236 0.499-0.453 0.754-0.672 0.265-0.23 0.524-0.463 0.802-0.674 0.274-0.206 0.564-0.385 0.849-0.573 0.28-0.183 0.554-0.379 0.844-0.543 0.329-0.187 0.674-0.341 1.015-0.505 0.267-0.128 0.526-0.27 0.802-0.383 0.402-0.166 0.821-0.291 1.236-0.423 0.232-0.074 0.455-0.166 0.689-0.227 0.451-0.12 0.916-0.198 1.379-0.278 0.215-0.038 0.423-0.097 0.638-0.124 0.322-0.042 0.651-0.042 0.977-0.065 0.36-0.025 0.72-0.072 1.085-0.072 0.017 0 0.034 0.002 0.051 0.002h269.245c0.078 0 0.156-0.002 0.232-0.002s0.154 0 0.232 0.002h33.478c8.723 0 15.794 7.072 15.794 15.794s-7.072 15.794-15.794 15.794zM761.092 237.866l-73.6 135.417c14.554 0.406 27.777 6.196 37.746 15.46l40.345-141.89-4.492-8.986zM711.123 438.393l0.307-1.076c0.478-1.98 0.758-4.037 0.758-6.162 0-14.516-11.808-26.324-26.324-26.324-9.11 0-17.151 4.654-21.878 11.707l-2.129 3.919c-0.032 0.059-0.072 0.114-0.105 0.173-1.415 3.226-2.211 6.783-2.211 10.527 0 14.516 11.808 26.324 26.324 26.324 11.757 0 21.737-7.752 25.105-18.41 0.051-0.227 0.088-0.453 0.154-0.678zM555.761 518.803l-250.229 53.080c0.128 0.809 0.213 1.63 0.213 2.474v67.389c0 0.581 0.472 1.053 1.053 1.053h207.63l41.333-123.996zM221.509 591.205v67.389c0 19.16 15.588 34.748 34.748 34.748h241.325l6.318-18.953h-197.101c-17.999 0-32.642-14.642-32.642-32.642v-63.209l-52.724 11.185c0.046 0.489 0.076 0.981 0.076 1.483zM155.172 455.373h-58.313c-0.2 0-0.571 0-0.882 0.48s-0.162 0.819-0.080 1.002l51.319 115.465c0.2 0.451 0.695 0.703 1.181 0.604l493.1-104.596c-8.447-10.066-13.547-23.032-13.547-37.169 0-6.417 1.063-12.585 2.999-18.357l-343.554 57.258-28.727 10.757c-10.925 5.284-23.176 8.251-36.106 8.251-25.997 0-49.238-11.995-64.504-30.734-0.015-0.015-0.029-0.029-0.044-0.044l-2.58-2.931c-0.086 0.002-0.173 0.015-0.261 0.015zM93.522 337.221l47.238 53.661c7.086-38.728 41.059-68.181 81.802-68.181 21.541 0 41.194 8.232 55.981 21.712l19.13-19.13c12.528-12.53 29.188-19.429 46.905-19.429h217.141c-11.258-14.192-18.008-32.115-18.008-51.595s6.749-37.403 18.008-51.595h-408.76c11.258 14.192 18.008 32.115 18.008 51.595 0 43.936-34.246 80.004-77.445 82.962zM234.936 455.969l11.058-4.14c16.698-8.552 28.162-25.93 28.162-45.945 0-28.449-23.146-51.595-51.595-51.595s-51.595 23.146-51.595 51.595 23.146 51.595 51.595 51.595c4.264 0 8.407-0.529 12.374-1.51zM344.58 337.442c-9.281 0-18.008 3.614-24.57 10.178l-22.405 22.405c5.214 10.862 8.139 23.026 8.139 35.859 0 8.712-1.352 17.113-3.848 25.010l249.559-93.452h-206.876zM36.188 254.258c0 12.932 4.793 24.759 12.682 33.823 1.649 0.872 3.18 2.032 4.486 3.517l3.378 3.837c8.647 6.535 19.402 10.418 31.050 10.418 28.449 0 51.595-23.146 51.595-51.595s-23.146-51.595-51.595-51.595-51.595 23.146-51.595 51.595zM626.897 202.664c-28.449 0-51.595 23.146-51.595 51.595s23.146 51.595 51.595 51.595c5.025 0 9.879-0.735 14.474-2.081l7.036-2.634c17.736-8.171 30.085-26.105 30.085-46.88 0-28.449-23.146-51.595-51.595-51.595zM661.527 329.861c-0.088 0.044-0.183 0.082-0.274 0.124-3.207 1.462-6.514 2.74-9.921 3.789l-209.825 78.574 207.607-34.602 33.646-61.905c-6.278 5.701-13.438 10.437-21.234 14.021zM787.231 219.511l38.892 77.782c2.327 4.656 6.381 7.958 11.414 9.296 5.031 1.337 10.191 0.482 14.524-2.407l127.006-84.67h-191.836z" />
<glyph unicode="&#xe996;" glyph-name="truck3" d="M143.28 198.513c-8.3 0-15.029-6.729-15.029-15.029 0-9.392-7.641-17.033-17.033-17.033s-17.033 7.641-17.033 17.033 7.641 17.033 17.033 17.033c8.3 0 15.029 6.729 15.029 15.029s-6.729 15.029-15.029 15.029c-25.967 0-47.092-21.125-47.092-47.092s21.125-47.092 47.092-47.092 47.092 21.125 47.092 47.092c0 8.3-6.729 15.029-15.029 15.029zM640.25 214.544c-8.3 0-15.029-6.729-15.029-15.029 0-18.232-14.833-33.065-33.065-33.065s-33.065 14.833-33.065 33.065 14.833 33.065 33.065 33.065c8.3 0 15.029 6.729 15.029 15.029s-6.729 15.029-15.029 15.029c-34.806 0-63.123-28.317-63.123-63.123s28.317-63.123 63.123-63.123 63.123 28.317 63.123 63.123c0 8.3-6.729 15.029-15.029 15.029zM1008.971 166.45h-240.47c-0.553 0-1.002 0.449-1.002 1.002v272.532c0 17.127-13.933 31.061-31.061 31.061h-33.065v321.628c0 17.127-13.933 31.061-31.061 31.061h-96.188c-8.3 0-15.029-6.729-15.029-15.029s6.729-15.029 15.029-15.029h33.065v-419.66c-5.629 0.539-11.306 0.842-17.033 0.842-5.747 0-11.426-0.287-17.033-0.83v80.838c0 13.873-3.667 27.558-10.605 39.575l-118.031 204.447c-13.144 27.169-41.042 44.689-71.255 44.689h-231.953c-25.967 0-47.092-21.125-47.092-47.092v-273.534h-17.033c-34.806 0-63.123-28.317-63.123-63.123v-112.219c0-1.824 0.341-3.565 0.938-5.182-10.735-17.103-16.969-37.303-16.969-58.943 0-61.326 49.891-111.217 111.217-111.217 50.545 0 93.292 33.904 106.771 80.157h216.946c0.034 0 0.066-0.004 0.1-0.004 0.030 0 0.058 0.004 0.088 0.004h38.856c18.763-46.914 64.646-80.157 118.177-80.157 70.165 0 127.249 57.083 127.249 127.249 0 22.508-5.9 43.655-16.196 62.019 0.096 0.689 0.164 1.389 0.164 2.106v63.338c0.026 0.505 0.024 1.012 0 1.515v112.494h33.065c0.553 0 1.002-0.449 1.002-1.002v-272.532c0-17.127 13.933-31.061 31.061-31.061h240.47c8.3 0 15.029 6.729 15.029 15.029s-6.727 15.029-15.027 15.029zM672.313 793.675c0.553 0 1.002-0.449 1.002-1.002v-321.628h-34.067v322.63h33.065zM419.602 685.44c0.174-0.367 0.363-0.727 0.567-1.080l113.894-197.283h-231.472v177.346c0 8.3-6.729 15.029-15.029 15.029s-15.029-6.729-15.029-15.029v-177.346h-33.065c-18.232 0-33.065 14.833-33.065 33.065v193.378h168.83c18.873 0 36.289-11.022 44.369-28.079zM126.247 696.485c0 9.392 7.641 17.033 17.033 17.033h33.065v-193.378c0-34.806 28.317-63.123 63.123-63.123h304.595c0.315 0 0.621 0.028 0.93 0.046 0.032-0.731 0.072-1.465 0.072-2.198v-86.439c-20.722-5.785-39.906-15.29-56.789-27.746l-49.695 49.697c-21.007 21.005-48.936 32.574-78.642 32.574h-233.692v273.534zM111.217 102.325c-44.751 0-81.159 36.407-81.159 81.159s36.407 81.159 81.159 81.159 81.159-36.407 81.159-81.159-36.407-81.159-81.159-81.159zM111.217 294.701c-24.309 0-46.805-7.861-65.127-21.145v86.273c0 18.232 14.833 33.065 33.065 33.065h280.784c21.678 0 42.058-8.442 57.388-23.77l48.322-48.322c-30.231-31.518-48.835-74.269-48.835-121.285 0-5.691 0.289-11.38 0.836-17.033h-195.239c0.002 0.335 0.026 0.665 0.026 1.002-0.002 61.326-49.893 111.217-111.219 111.217zM447.903 182.481c-0.657 5.641-1.030 11.332-1.030 17.033 0 80.11 65.173 145.284 145.284 145.284 29.261 0 57.158-8.559 81.159-24.784v-22.572c-22.043 18.3-50.336 29.321-81.159 29.321-70.165 0-127.249-57.083-127.249-127.249 0-5.779 0.423-11.456 1.172-17.033h-18.178zM592.157 102.325c-53.591 0-97.19 43.599-97.19 97.19s43.599 97.19 97.19 97.19 97.19-43.599 97.19-97.19-43.599-97.19-97.19-97.19zM673.315 355.008c-10.879 5.705-22.286 10.192-34.067 13.462v72.516h34.067v-85.978z" />
<glyph unicode="&#xe997;" glyph-name="truck4" d="M957.206 528.016l-189.707 59.284v65.217c0 8.831 3.439 17.135 9.685 23.38l17.977 17.977c5.869 5.869 5.869 15.386 0 21.254-5.869 5.869-15.386 5.869-21.254 0l-17.977-17.977c-11.923-11.921-18.488-27.774-18.488-44.633v-61.238h-82.162v130.254h17.033c8.3 0 15.029 6.729 15.029 15.029s-6.729 15.029-15.029 15.029h-304.595c-8.3 0-15.029-6.729-15.029-15.029s6.729-15.029 15.029-15.029h17.033v-113.221c0-20.712 13.446-38.331 32.063-44.619v-74.343l-119.942-59.971c-1.287-0.643-2.431-1.455-3.441-2.381l-106.961 75.501c-7.988 5.641-17.38 8.623-27.159 8.623h-129.252v17.033c0 8.3-6.729 15.029-15.029 15.029s-15.029-6.729-15.029-15.029v-64.125c0-25.967 21.125-47.092 47.092-47.092h97.274l230.841-162.944-4.493-31.435h-2.996c-8.3 0-15.029-6.729-15.029-15.029s6.729-15.029 15.029-15.029h16.023c0.008 0 0.018-0.002 0.028-0.002 0.014 0 0.028 0.002 0.042 0.002h50.857c6.761-27.572 31.674-48.094 61.302-48.094s54.539 20.522 61.302 48.094h262.15c6.761-27.572 31.674-48.094 61.302-48.094s54.539 20.522 61.302 48.094h66.945c8.3 0 15.029 6.729 15.029 15.029v229.633c0 41.858-26.842 78.369-66.794 90.853zM993.941 318.748h-17.033c-0.553 0-1.002 0.449-1.002 1.002v16.031c0 0.553 0.449 1.002 1.002 1.002h17.033v-18.035zM502.193 366.841l-50.332 50.332c-3.216 3.216-4.99 7.495-4.99 12.046v132.002h35.714l7.396-18.492c7.192-17.983 24.356-29.602 43.723-29.602h91.517v-113.221c0-18.232-14.833-33.065-33.065-33.065h-89.964zM414.81 721.534h210.411v-178.348h-91.513c-7.006 0-13.214 4.202-15.815 10.707l-11.176 27.939c-2.282 5.705-7.807 9.446-13.953 9.446h-60.919c-9.392 0-17.033 7.641-17.033 17.033v113.223zM416.814 455.745v-26.528c0-12.579 4.898-24.406 13.793-33.299l50.332-50.33v-10.809h-53.35c-1.11 0-2.204-0.076-3.296-0.152l-103.54 73.089 96.062 48.030zM157.802 444.247c-2.537 1.789-5.563 2.751-8.667 2.751h-102.043c-9.392 0-17.033 7.641-17.033 17.033v17.033h129.252c3.535 0 6.93-1.078 9.821-3.12l224.104-158.191c-6.419-6.851-10.865-15.606-12.266-25.408l-0.99-6.928-222.178 156.828zM410.726 290.096c0.96 6.725 5.865 12.112 12.146 13.945 0.649 0.102 1.289 0.248 1.92 0.435 0.914 0.154 1.846 0.244 2.797 0.244h53.35v-35.888c-22.752-5.579-40.691-23.52-46.272-46.272h-33.59l9.649 67.536zM495.969 174.466c-18.232 0-33.065 14.833-33.065 33.065s14.833 33.065 33.065 33.065 33.065-14.833 33.065-33.065-14.833-33.065-33.065-33.065zM880.72 174.466c-18.232 0-33.065 14.833-33.065 33.065s14.833 33.065 33.065 33.065 33.065-14.833 33.065-33.065-14.833-33.065-33.065-33.065zM942.022 222.56c-6.761 27.572-31.674 48.094-61.302 48.094s-54.539-20.522-61.302-48.094h-262.148c-5.579 22.752-23.52 40.691-46.272 46.272v67.951h81.159c34.806 0 63.123 28.317 63.123 63.123v161.315h94.895l198.065-61.895c27.335-8.543 45.701-33.523 45.701-62.163v-70.321h-17.033c-17.127 0-31.061-13.933-31.061-31.061v-16.031c0-17.127 13.933-31.061 31.061-31.061h17.033v-66.129h-51.919zM768.501 511.123h-64.125c-8.3 0-15.029-6.729-15.029-15.029s6.729-15.029 15.029-15.029h64.125c8.3 0 15.029 6.729 15.029 15.029s-6.729 15.029-15.029 15.029zM768.501 463.029h-64.125c-8.3 0-15.029-6.729-15.029-15.029s6.729-15.029 15.029-15.029h64.125c8.3 0 15.029 6.729 15.029 15.029s-6.729 15.029-15.029 15.029zM768.501 414.935h-64.125c-8.3 0-15.029-6.729-15.029-15.029s6.729-15.029 15.029-15.029h64.125c8.3 0 15.029 6.729 15.029 15.029s-6.729 15.029-15.029 15.029z" />
<glyph unicode="&#xe998;" glyph-name="truck5" d="M313.855 238.118c-8.038-2.070-12.877-10.266-10.805-18.304 1.026-3.984 1.545-8.116 1.545-12.284 0-27.071-22.025-49.096-49.096-49.096s-49.096 22.025-49.096 49.096 22.025 49.096 49.096 49.096c4.166 0 8.3-0.521 12.286-1.545 8.042-2.070 16.232 2.769 18.302 10.809 2.070 8.038-2.769 16.234-10.809 18.302-6.431 1.655-13.086 2.495-19.779 2.495-43.645 0-79.155-35.509-79.155-79.155s35.509-79.155 79.155-79.155 79.155 35.509 79.155 79.155c0 6.695-0.84 13.352-2.497 19.785-2.070 8.034-10.27 12.871-18.302 10.801zM666.544 238.118c-8.038-2.070-12.877-10.266-10.805-18.304 1.026-3.984 1.545-8.116 1.545-12.284 0-27.071-22.025-49.096-49.096-49.096s-49.096 22.025-49.096 49.096 22.025 49.096 49.096 49.096c4.166 0 8.3-0.521 12.286-1.545 8.040-2.070 16.232 2.769 18.302 10.809 2.070 8.038-2.769 16.234-10.809 18.302-6.431 1.655-13.086 2.495-19.779 2.495-43.645 0-79.155-35.509-79.155-79.155s35.509-79.155 79.155-79.155 79.155 35.509 79.155 79.155c0 6.695-0.84 13.352-2.497 19.785-2.070 8.034-10.27 12.871-18.302 10.801zM1020.844 118.184c0.156 0.2 0.311 0.401 0.455 0.607 0.132 0.188 0.254 0.385 0.379 0.581 0.136 0.216 0.273 0.435 0.399 0.657 0.116 0.206 0.22 0.419 0.327 0.633 0.11 0.218 0.22 0.437 0.319 0.661 0.102 0.23 0.19 0.467 0.281 0.703 0.082 0.216 0.166 0.431 0.236 0.649 0.082 0.246 0.15 0.499 0.218 0.751 0.060 0.218 0.12 0.439 0.168 0.659 0.056 0.248 0.1 0.501 0.142 0.753 0.040 0.236 0.080 0.473 0.108 0.711 0.028 0.236 0.048 0.477 0.066 0.717 0.020 0.265 0.034 0.529 0.040 0.794 0.002 0.104 0.016 0.206 0.016 0.313 0 0.124-0.016 0.246-0.018 0.369-0.006 0.271-0.020 0.541-0.042 0.812-0.018 0.232-0.040 0.463-0.070 0.693-0.032 0.254-0.070 0.507-0.116 0.759-0.042 0.236-0.086 0.473-0.14 0.705-0.054 0.242-0.118 0.481-0.184 0.719-0.066 0.234-0.134 0.467-0.21 0.695-0.078 0.234-0.164 0.465-0.254 0.695-0.088 0.224-0.178 0.449-0.277 0.667-0.1 0.226-0.21 0.449-0.323 0.669-0.11 0.216-0.222 0.431-0.343 0.643-0.12 0.21-0.248 0.419-0.381 0.625-0.136 0.214-0.277 0.423-0.423 0.629-0.134 0.19-0.275 0.377-0.421 0.561-0.166 0.212-0.339 0.419-0.515 0.623-0.082 0.094-0.152 0.194-0.236 0.287l-176.344 192.376c-5.609 6.12-15.118 6.531-21.235 0.924-6.118-5.609-6.533-15.116-0.924-21.235l13.765-15.015c-0.030-0.058-0.066-0.112-0.096-0.17l-15.657-31.313-54.202 166.898c-4.599 14.693-16.105 26.227-30.772 30.852l-113.389 35.808c-0.016 0.433-0.042 0.868-0.096 1.307l-27.943 223.575h31.069c8.3 0 15.029 6.729 15.029 15.029s-6.729 15.029-15.029 15.029h-225.44v33.065c0 25.967-21.125 47.092-47.092 47.092s-47.092-21.125-47.092-47.092v-33.864c-27.646-4.391-49.573-26.712-52.755-55.352l-8.817-79.365-117.628 37.145c-2.132 0.673-4.3 0.834-6.382 0.573-11.817 11.378-27.297 17.642-43.747 17.642h-60.236c-8.3 0-15.029-6.729-15.029-15.029v-80.153c0-0.002 0-0.006 0-0.010v-294.369c0-31.706 18.831-60.264 47.974-72.754l66.843-28.646c12.689-66.109 70.929-116.225 140.683-116.225 68.337 0 125.617 48.104 139.849 112.219h72.989c14.232-64.115 71.512-112.219 139.849-112.219 69.602 0 127.746 49.895 140.607 115.79l15.33-46.18c0.633-1.908 1.643-3.571 2.876-5.008 0.319-0.599 0.659-1.192 1.020-1.777 5.701-9.224 15.578-14.731 26.422-14.731h214.535c0.483 0 0.966 0.026 1.447 0.074 0.18 0.018 0.355 0.048 0.533 0.072 0.297 0.040 0.593 0.078 0.888 0.136 0.208 0.040 0.411 0.092 0.615 0.142 0.259 0.062 0.519 0.124 0.776 0.2 0.208 0.062 0.413 0.132 0.617 0.202 0.246 0.084 0.491 0.17 0.735 0.269 0.2 0.080 0.397 0.168 0.593 0.259 0.236 0.108 0.473 0.218 0.705 0.339 0.194 0.1 0.385 0.208 0.573 0.317 0.22 0.126 0.439 0.259 0.655 0.399 0.192 0.124 0.379 0.252 0.563 0.385 0.2 0.142 0.397 0.291 0.593 0.443 0.188 0.148 0.373 0.303 0.555 0.461 0.1 0.086 0.206 0.162 0.303 0.252 0.078 0.072 0.144 0.15 0.22 0.222 0.192 0.184 0.379 0.375 0.561 0.569 0.164 0.174 0.327 0.349 0.481 0.527 0.156 0.186 0.307 0.377 0.455 0.571zM736.719 420.861l63.68-196.087-20.905-41.81-70.436 212.172c-1.519 4.577-5.14 8.144-9.739 9.597l-496.566 156.81c-3.1 8.695-8.118 16.667-14.839 23.388l-24.881 24.881 562.505-177.633c5.304-1.673 9.466-5.847 11.18-11.318zM339.361 482.313l0.585 4.387 74.954-23.67h-58.657c-4.982 0-9.535 2.064-12.817 5.813s-4.723 8.533-4.066 13.47zM206.403 528.87l26.015-8.216-4.719-42.475c-0.96-8.639-8.238-15.152-16.929-15.152h-4.367v65.843zM352.583 581.477l10.29 77.183c1.124 8.426 8.382 14.781 16.885 14.781h189.111l20.857-166.852-237.143 74.888zM351.687 801.691c9.392 0 17.033-7.641 17.033-17.033v-33.065h-34.067v33.065c0 9.392 7.641 17.033 17.033 17.033zM281.714 692.121c1.864 16.769 15.991 29.413 32.862 29.413h248.281l2.254-18.035h-185.354c-23.504 0-43.573-17.57-46.679-40.868l-9.595-71.967-51.244 16.182 9.475 85.275zM75.265 641.378c8.831 0 17.135-3.439 23.38-9.685l68.015-68.015c6.244-6.244 9.685-14.548 9.685-23.38v-213.415c-36.874-24.536-61.785-65.674-63.955-112.664l-18.282 7.835c0.050 0.495 0.076 0.998 0.076 1.507v262.002c0 21.143-8.234 41.020-23.183 55.971l-40.942 40.94v58.903h45.206zM30.059 281.878v258.090l19.686-19.686c9.274-9.274 14.38-21.602 14.38-34.718v-250.66l-4.31 1.848c-18.075 7.745-29.756 25.46-29.756 45.126zM255.499 94.309c-62.43 0-113.221 50.791-113.221 113.221s50.791 113.221 113.221 113.221 113.221-50.791 113.221-113.221-50.791-113.221-113.221-113.221zM608.188 94.309c-62.43 0-113.221 50.791-113.221 113.221s50.791 113.221 113.221 113.221 113.221-50.791 113.221-113.221-50.791-113.221-113.221-113.221zM608.188 350.81c-79.004 0-143.28-64.276-143.28-143.28 0-0.337 0.022-0.667 0.026-1.002h-66.179c0.002 0.335 0.026 0.665 0.026 1.002 0 79.004-64.276 143.28-143.28 143.28-17.24 0-33.774-3.062-49.096-8.669v26.704h305.597c8.3 0 15.029 6.729 15.029 15.029s-6.729 15.029-15.029 15.029h-305.599v34.067h4.367c24.029 0 44.15 18.009 46.803 41.892l4.062 36.567 49.21-15.54-1.281-9.603c-1.796-13.456 2.305-27.031 11.248-37.245s21.857-16.071 35.433-16.071h153.842l107.877-34.067h-41.84c-8.3 0-15.029-6.729-15.029-15.029s6.729-15.029 15.029-15.029h109.991l18.358-55.298c-25.458 23.141-59.254 37.263-96.286 37.263zM793.588 142.878c-0.293 0.475-0.136 0.79-0.044 0.976l63.504 127.012 117.758-128.463h-180.364c-0.21 0-0.559 0-0.854 0.475z" />
</font>
</defs>
</svg>
