<svg id="Livello_1" data-name="Livello 1" xmlns="http://www.w3.org/2000/svg" viewBox="0 0 332.84 332.84"><defs><style>.cls-1{fill:#fff}.cls-2{fill:#eb2227}</style></defs><title>SACCON_Logow</title><path class="cls-2" d="M0 0h332.48v332.22H0z"/><path class="cls-1" d="M216 395.83c2.64-.21 3.23-1.38 3.84-3.31 1.3-4.11 3.09-8 7.55-10 4-1.74 7.77-4.11 11.85-5.67a5.83 5.83 0 0 1 7.43 2.85 8.09 8.09 0 0 1-.21 8.14 29.07 29.07 0 0 1-2.77 4.58c-3.94 5.24-5 5.73-1.35 5.07 5.93-1.09 6.53-2.7 12.4-5.23 5.37-2.32 10.17-5.88 15.37-8.6a61.78 61.78 0 0 1 10.64-4.46 11.84 11.84 0 0 1 6.14.28c2.42.65 3.18 4.83 1 6.22a58.62 58.62 0 0 1-10.89 5.71c-3.73 1.41-7.76 2-12 3a5 5 0 0 0 5.47 2.78c6.88-1.41 13.85-2.67 20.45-5 3.67-1.28 6.54-4.7 10-6.77a38 38 0 0 1 7.67-3.1 3.37 3.37 0 0 1 4.33 1.57 2.86 2.86 0 0 1-1.19 4.08 107.68 107.68 0 0 1-10.5 5.9c-2.93 1.34-6.41 1.53-8.83 3.94l.1.94c2.21 0 4.52.38 6.6-.14 5.55-1.39 11-3.19 16.48-4.79 4.26-1.24 8.63-2.16 12.75-3.73 2.55-1 4.77-2.87 7.08-4.43 1.87-1.27 3.52-2.91 5.49-4 4.05-2.18 8.51 2.09 8.49 5.59 0 2.22-.27 4.43-.27 6.64a23.75 23.75 0 0 0 .48 3.44c1.48-.55 3.54-.69 4.29-1.75a8.75 8.75 0 0 0 1.34-5.37c-.35-4.63.28-8.91 3.59-12.29 1.21-1.24 3.27-2.52 4.78-2.36 2 .22 2.92 2.34 2.45 4.58-.91 4.36-1.63 8.76-2.81 13-.65 2.35 0 4.28 2.46 4.63a9.49 9.49 0 0 0 8.06-2.13c3.7-3.31 7.3-6.72 11-10 .64-.56 1.93-1.21 2.43-.94a4.16 4.16 0 0 1 1.94 2.54c.64 3.69.75 7.48 1.54 11.12.66 3 3.46 4.74 6.63 4.78 5.11.07 9.56-1.82 13.71-4.61 1.16-.78 2.67-2.35 3.71-.44.49.89-.19 3.08-1.07 3.94-3.88 3.81-9.05 4.81-14.18 5.68a21.48 21.48 0 0 1-5.52.36c-5.34-.5-7.63-4.24-9-8.89a38.38 38.38 0 0 0-1.78-4.2c-1.2.88-2.44 1.7-3.59 2.64-5.19 4.25-11.86 7.89-19.59 4.2-2.31-1.1-4.53-1.56-6.84 0a3.32 3.32 0 0 1-1.85.51c-6.79-.29-11.89 4.5-18.12 6-4.5 1.08-8.15-.12-8.8-6a46.51 46.51 0 0 1 .1-5.78c-2.29.56-4.56 1.1-6.82 1.67-8 2-16 4.19-24 6.13-2.41.58-5.6-1.28-6.8-3.83-.65-1.39-1.42-1.79-2.81-1.41-3.3.89-6.57 1.9-9.9 2.59-4 .82-7.92.88-11.48-1.55a11.37 11.37 0 0 1-2.38-1.88c-2.15-2.57-3.49-3-6.31-1a34.44 34.44 0 0 1-15.31 5.91c-2.83.39-5.79-.17-8.69-.3a32.76 32.76 0 0 1-4.31-.2 48.47 48.47 0 0 1-7.94-1.83c-1.87-.67-2.42-.2-3 1.49-1.83 5.81-3.62 11.64-5.74 17.35-3.26 8.79-7.57 17-14.52 23.52-5.83 5.44-10.54 3.26-13.29-4-3.33-8.75-2.26-17.56 3.66-25.18 3.67-4.73 8.68-7.83 14.2-10.1a82.66 82.66 0 0 0 10.57-4.81c1.2-.71 1.87-2.91 2.13-4.53q1.68-10.47 2.94-21c1.22-10.15 2.14-20.34 3.47-30.47 1.29-9.81 2.58-19.65 6.06-29a4.19 4.19 0 0 1 3-2.19c.78-.06 2.12 1.39 2.42 2.4.42 1.4.7 3.38 0 4.51-3.65 6.14-4.88 12.93-6 19.79-.78 4.71-2 9.36-2.57 14.09-1.26 10.25-2.19 20.54-3.36 30.81-.32 4.11-1.05 8.07-1.7 12.3zm-32.48 34.6c.44 2.57.64 4.8 1.23 6.92 1 3.71 4.79 4.74 7.55 2.18a16.62 16.62 0 0 0 3.14-3.42c3-5.14 6.24-10.23 8.78-15.62 2-4.23 3.15-8.86 4.57-13.34.48-1.51.88-3.27-1.85-1.85-3.22 1.66-6.41 3.41-9.77 4.77-8.64 3.47-14.17 11.73-13.64 20.36zm40-36.11c1.7 2.06 3.58 3.28 7.69 2.19a28.36 28.36 0 0 0 8.46-5.57c1.09-1.23 1.57-4.36 2.51-5.69a3.2 3.2 0 0 0-.17-2.56c-1.57-.35-3.41-.83-4.8-.32a37.71 37.71 0 0 0-7.5 4c-2.71 1.79-6.9 6.26-6.22 7.95zm114.71 7.1c-1.17-1.12-2-1.84-2.73-2.63a14.6 14.6 0 0 0-2.18-2.46 3 3 0 0 0-2.33-.09 17.88 17.88 0 0 0-1.2 5.33c0 1.86 1.44 2.5 3.14 2s3.18-1.31 5.27-2.16zm7.1-11.45a3.94 3.94 0 0 0-1.65-1.12c-2.13-.25-4.72 2.1-4.36 4.36a6.56 6.56 0 0 0 2.68 4c1.1.74 3.18-3.21 3.31-7.21z" transform="translate(-130.93 -213.08)"/></svg>