<svg xmlns="http://www.w3.org/2000/svg" viewBox="0 0 511 511"><path d="M477.668 215.57L383 185.986v-32.545a16.39 16.39 0 0 1 4.833-11.667l8.971-8.971a7.5 7.5 0 0 0 0-10.606 7.5 7.5 0 0 0-10.606 0l-8.971 8.971c-5.95 5.949-9.226 13.86-9.226 22.273V184H327v-65h8.5a7.5 7.5 0 0 0 0-15h-152a7.5 7.5 0 0 0 0 15h8.5v56.5c0 10.336 6.71 19.128 16 22.266v37.099l-59.854 29.927a7.508 7.508 0 0 0-1.717 1.188l-53.376-37.677A23.374 23.374 0 0 0 79.5 224H15v-8.5a7.5 7.5 0 0 0-15 0v32C0 260.458 10.542 271 23.5 271h48.542l115.195 81.313L184.995 368H183.5a7.5 7.5 0 0 0 0 15h7.996l.014.001.021-.001h25.379c3.374 13.759 15.806 24 30.591 24s27.216-10.241 30.591-24h130.819c3.374 13.759 15.806 24 30.591 24s27.216-10.241 30.591-24H503.5a7.5 7.5 0 0 0 7.5-7.5V260.908c0-20.888-13.395-39.108-33.332-45.338zM496 320h-8.5a.5.5 0 0 1-.5-.5v-8a.5.5 0 0 1 .5-.5h8.5v9zm-245.394-24l-25.117-25.117a8.446 8.446 0 0 1-2.49-6.011V199h17.822l3.691 9.228c3.589 8.974 12.154 14.772 21.819 14.772H312v56.5c0 9.098-7.402 16.5-16.5 16.5h-44.894zM207 119h105v89h-45.667a8.458 8.458 0 0 1-7.892-5.343l-5.577-13.942a7.5 7.5 0 0 0-6.963-4.714h-30.4c-4.687 0-8.5-3.813-8.5-8.5V119zm1 132.635v13.238a23.344 23.344 0 0 0 6.883 16.617L240 306.606V312h-26.623c-.554 0-1.1.038-1.645.076l-51.669-36.473L208 251.635zm-129.253 5.738A7.503 7.503 0 0 0 74.422 256H23.5c-4.687 0-8.5-3.813-8.5-8.5V239h64.5c1.764 0 3.458.538 4.901 1.557l111.833 78.941c-3.203 3.419-5.422 7.788-6.121 12.679l-.494 3.457-110.872-78.261zm126.215 76.925c.479-3.356 2.927-6.044 6.061-6.959.324-.051.643-.124.958-.217a8.367 8.367 0 0 1 1.396-.122H240v17.909c-11.354 2.784-20.306 11.737-23.091 23.091h-16.762l4.815-33.702zM247.5 392c-9.098 0-16.5-7.402-16.5-16.5s7.402-16.5 16.5-16.5 16.5 7.402 16.5 16.5-7.402 16.5-16.5 16.5zm192 0c-9.098 0-16.5-7.402-16.5-16.5s7.402-16.5 16.5-16.5 16.5 7.402 16.5 16.5-7.402 16.5-16.5 16.5zm30.591-24c-3.374-13.759-15.806-24-30.591-24s-27.216 10.241-30.591 24H278.091c-2.784-11.354-11.737-20.306-23.091-23.091V311h40.5c17.369 0 31.5-14.131 31.5-31.5V199h47.355l98.839 30.887C486.835 234.15 496 246.616 496 260.908V296h-8.5c-8.547 0-15.5 6.953-15.5 15.5v8c0 8.547 6.953 15.5 15.5 15.5h8.5v33h-25.909z"/><path d="M383.5 224h-32a7.5 7.5 0 0 0 0 15h32a7.5 7.5 0 0 0 0-15zm0 24h-32a7.5 7.5 0 0 0 0 15h32a7.5 7.5 0 0 0 0-15zm0 24h-32a7.5 7.5 0 0 0 0 15h32a7.5 7.5 0 0 0 0-15z"/></svg>