<?xml version="1.0"?>
<?xml-stylesheet type="text/css" href="../css/style.css"?>
<svg xmlns="http://www.w3.org/2000/svg" xmlns:xlink="http://www.w3.org/1999/xlink" version="1.1" id="Layer_1" x="0px" y="0px" viewBox="0 0 470 450" style="enable-background:new 0 0 512 512;" xml:space="preserve" width="512px" height="512px" class=""><g><path style="fill:#FFFFFF" d="M140.274,163.82v32.063c0,0.205-0.02,0.436-0.065,0.725l-0.433,2.808l126.968,26.929l-22.014-66.032  H143.781C141.847,160.313,140.274,161.886,140.274,163.82z" data-original="#8D8A94" class="" data-old_color="#ffffff"/><path style="fill:#FFFFFF" d="M226.943,178.348c0,13.292-1.881,26.167-5.385,38.412l45.185,9.583l-22.014-66.03h-18.955  C226.541,166.224,226.943,172.241,226.943,178.348z" data-original="#736F7B" class="" data-old_color="#ffffff"/><path style="fill:#FFFFFF" d="M340.825,281.992c-4.377,4.062-10.06,6.388-16.003,6.553l-4.899,0.135l40.105,73.783l5.25-10.452  l-20.859-73.355L340.825,281.992z" data-original="#EE8A68" class="" data-old_color="#ffffff"/><path style="fill:#FFFFFF" d="M208.37,269.998l-1.548,5.779l99.825,37.383l0.167,0.057c1.426,0.44,2.895,1.002,4.364,1.668  l0.12,0.056c3.425,1.569,6.567,3.643,9.339,6.164l4.663-3.659l-16.712-30.746L208.37,269.998z" data-original="#8D8A94" class="" data-old_color="#ffffff"/><path style="fill:#FFFFFF" d="M135.783,293.723l12.158,12.17c3.698,3.686,8.605,5.716,13.815,5.716h98.432l1.054-5.821  l-124.531-46.634l1.87,5.892c1.123,3.54,1.692,7.239,1.692,10.994c0,5.509-1.202,10.813-3.573,15.765L135.783,293.723z" data-original="#A7A5AC" class="" data-old_color="#ffffff"/><g>
	<path fill="#FFFFFF" d="M404.872,321.921c-1.905-1.266-4.103-1.937-6.357-1.937c-0.999,0-2.004,0.131-2.998,0.394   c-3.233,0.866-5.839,2.987-7.342,5.979l-20.669,41.362h106.058L404.872,321.921z" data-original="#EE8A68" class="" data-old_color="#ffffff"/>
	<path fill="#FFFFFF" d="M131.256,163.82c0-6.906,5.618-12.524,12.524-12.524h97.943l-5.01-15.029h-116.98   c-10.773,0-19.538,8.765-19.538,19.538v32.063c0,0.106-0.001,0.208-0.014,0.31l-0.363,2.756l31.437,6.665V163.82z" data-original="#EE8A68" class="" data-old_color="#ffffff"/>
</g><path fill="#FFFFFF" d="M43.896,255.499H71.49l0.087,0.01h1.543l1.239-1.41l0.311-0.001l0.784-1.252  c7.002-8.506,17.287-13.378,28.249-13.378c5.556,0,10.897,1.22,15.875,3.628l0.125,0.06l14.068,5.27l168.655,28.112l-1.572-4.732  c-0.843-2.536-1.27-5.157-1.27-7.789c0-5.746,2.038-11.341,5.739-15.753l3.217-3.834L69.055,193.628  c-0.245-0.054-0.496-0.081-0.746-0.081c-1.373,0-2.626,0.813-3.202,2.087l-24.402,54.9c-0.509,1.09-0.417,2.344,0.252,3.37  C41.617,254.918,42.688,255.499,43.896,255.499z" data-original="#D67153" class="" data-old_color="#ffffff"/><path style="fill:#FFFFFF" d="M259.507,348.18c0-8.312,2.736-16.156,7.914-22.679l3.869-4.875H161.756  c-7.623,0-14.792-2.972-20.189-8.368l-11.137-11.126l-2.12,1.933c-6.752,6.156-15.491,9.546-24.607,9.546  c-17.662,0-32.785-12.608-35.959-29.978l-1.114-6.1l-30.605,34.752l6.073,0.418c19.094,1.311,34.052,17.334,34.052,36.477  c0,8.312-2.736,16.156-7.914,22.679l-3.87,4.875H271.29l-3.869-4.875C262.243,364.336,259.507,356.492,259.507,348.18z   M236.462,348.18c0,2.486-2.023,4.509-4.509,4.509h-128.25c-2.486,0-4.509-2.023-4.509-4.509c0-2.486,2.023-4.509,4.509-4.509  h128.25C234.439,343.671,236.462,345.694,236.462,348.18z" data-original="#625D6B" class="active-path" data-old_color="#ffffff"/><g>
	<path fill="#FFFFFF" d="M309.964,270.399l0.147,0.22l1.036,1.909l0.079,0.117c2.903,4.321,7.726,6.9,12.905,6.9   c8.564,0,15.53-6.967,15.53-15.53c0-1.21-0.15-2.439-0.447-3.65l-0.16-0.554c-0.022-0.119-0.049-0.239-0.082-0.361l-0.032-0.108   c-2.052-6.494-8.004-10.857-14.808-10.857c-8.564,0-15.53,6.967-15.53,15.53c0,2.148,0.439,4.239,1.305,6.216L309.964,270.399z" data-original="#A7A5AC" class="" data-old_color="#ffffff"/>
	<path fill="#FFFFFF" d="M307.565,323.146l-0.1-0.046l-3.551-1.33l-0.104-0.031c-2.518-0.739-5.118-1.114-7.73-1.114   c-15.194,0-27.554,12.36-27.554,27.554c0,15.194,12.36,27.554,27.554,27.554s27.554-12.36,27.554-27.554   C323.632,337.465,317.326,327.639,307.565,323.146z M292.902,344.988c0.818-0.825,2.005-1.317,3.176-1.317s2.359,0.492,3.192,1.333   c0.825,0.818,1.317,2.005,1.317,3.176s-0.492,2.359-1.333,3.192c-0.818,0.825-2.005,1.317-3.176,1.317s-2.359-0.492-3.192-1.333   c-0.825-0.818-1.317-2.005-1.317-3.176S292.061,345.821,292.902,344.988z" data-original="#A7A5AC" class="" data-old_color="#ffffff"/>
	<path fill="#FFFFFF" d="M39.577,320.626c-6.046,0-11.781,1.927-16.585,5.571l-0.237,0.18l-1.81,2.046   c-0.37,0.417-0.796,0.752-1.268,0.998l-0.508,0.264l-0.376,0.432c-4.366,5.018-6.769,11.433-6.769,18.063   c0,15.194,12.36,27.554,27.554,27.554s27.554-12.36,27.554-27.554C67.131,332.986,54.771,320.626,39.577,320.626z M36.401,344.988   c0.818-0.825,2.005-1.317,3.176-1.317c1.171,0,2.359,0.492,3.193,1.333c0.825,0.818,1.316,2.005,1.316,3.176   s-0.492,2.359-1.333,3.192c-0.818,0.825-2.005,1.317-3.176,1.317c-1.171,0-2.359-0.492-3.193-1.333   c-0.824-0.818-1.316-2.005-1.316-3.176S35.56,345.821,36.401,344.988z" data-original="#A7A5AC" class="" data-old_color="#ffffff"/>
	<path fill="#FFFFFF" d="M116.069,251.422l-5.584-2.085l-0.165-0.041c-2.162-0.538-4.388-0.811-6.617-0.811   c-15.194,0-27.554,12.36-27.554,27.554c0,15.194,12.36,27.554,27.554,27.554s27.554-12.36,27.554-27.554   c0-10.388-5.76-19.791-15.032-24.538L116.069,251.422z M100.526,272.847c0.83-0.837,1.988-1.317,3.176-1.317   c1.171,0,2.359,0.492,3.193,1.333c0.825,0.818,1.316,2.005,1.316,3.176s-0.492,2.36-1.333,3.193   c-0.818,0.825-2.006,1.316-3.176,1.316c-1.17,0-2.359-0.492-3.193-1.333c-0.824-0.817-1.316-2.005-1.316-3.176   C99.194,274.851,99.674,273.693,100.526,272.847z" data-original="#A7A5AC" class="" data-old_color="#ffffff"/>
</g><path class="truck" d="M504.485,364.712c4.148,0,7.515,3.367,7.515,7.515c0,4.148-3.367,7.515-7.515,7.515h-15.931c-0.03,0-0.07,0-0.11,0  c-0.03,0-0.07,0-0.11,0h-128.1c-0.01,0-0.02,0-0.02,0c-0.18,0-0.351-0.02-0.521-0.03c-0.15-0.01-0.311-0.01-0.461-0.03  c-0.1-0.02-0.2-0.05-0.301-0.06c-0.22-0.04-0.451-0.08-0.661-0.13c-0.11-0.03-0.22-0.08-0.331-0.11c-0.19-0.07-0.391-0.12-0.581-0.2  c-0.13-0.06-0.261-0.12-0.381-0.19c-0.17-0.07-0.331-0.15-0.491-0.23c-0.14-0.08-0.271-0.18-0.401-0.261  c-0.13-0.09-0.271-0.18-0.401-0.281c-0.13-0.09-0.261-0.21-0.381-0.311c-0.12-0.11-0.25-0.21-0.361-0.321  c-0.12-0.12-0.22-0.24-0.331-0.361c-0.12-0.13-0.23-0.26-0.331-0.391c-0.1-0.12-0.19-0.25-0.281-0.381  c-0.06-0.1-0.13-0.18-0.19-0.281c-0.04-0.06-0.07-0.13-0.1-0.19c-0.04-0.06-0.08-0.11-0.11-0.17l-18.456-33.956  c0.331,2.054,0.511,4.168,0.511,6.322c0,21.823-17.755,39.577-39.577,39.577H39.577C17.755,387.757,0,370.003,0,348.18  c0-12.264,5.611-23.245,14.388-30.51l44.156-50.148H43.896c-5.28,0-10.15-2.645-13.025-7.064c-2.876-4.429-3.306-9.949-1.162-14.769  l24.408-54.937c2.966-6.663,10.29-10.4,17.424-8.887l16.632,3.527v-29.588c0-17.404,14.158-31.562,31.562-31.562h120.075  c0.01,0,0.02,0,0.03,0H256c4.148,0,7.515,3.367,7.515,7.515s-3.367,7.515-7.515,7.515h-5.601l4.759,14.288c0,0,0,0.01,0,0.02  l24.007,71.991c0.03,0.12,0.06,0.24,0.09,0.351l50.449,10.701c0.922,0.2,1.773,0.571,2.525,1.052  c9.208,2.836,16.372,10.38,18.666,19.809l21.131,74.305l5.401-10.801c3.016-6.042,8.487-10.501,15.009-12.234  c6.523-1.733,13.486-0.571,19.107,3.166l79.185,52.793H504.485z M372.367,364.712h91.268l-60.428-40.289  c-2.064-1.373-4.519-1.773-6.913-1.142c-2.395,0.641-4.318,2.204-5.431,4.419L372.367,364.712z M362.067,351.707l-19.197-67.512  c-4.749,4.409-11.042,7.164-17.965,7.354l35.018,64.426L362.067,351.707z M336.658,264.016c0-1.012-0.13-1.994-0.361-2.936  l-0.15-0.511c-0.03-0.1-0.04-0.21-0.07-0.321c-1.603-5.07-6.352-8.757-11.943-8.757c-6.903,0-12.524,5.621-12.524,12.524  c0,1.783,0.381,3.477,1.052,5.01c0.02,0.03,0.03,0.05,0.05,0.08l1.012,1.864c2.254,3.357,6.072,5.571,10.41,5.571  C331.037,276.54,336.658,270.919,336.658,264.016z M322.66,318.883l-16.011-29.458l-98.773-16.462l99.825,37.383  c1.623,0.501,3.196,1.112,4.719,1.804c0.05,0.02,0.09,0.04,0.13,0.06C316.268,313.913,319.674,316.168,322.66,318.883z   M320.626,348.18c0-9.879-5.871-18.416-14.318-22.304l-3.347-1.252c-2.184-0.641-4.489-0.992-6.883-0.992  c-13.536,0-24.548,11.012-24.548,24.548c0,13.536,11.012,24.548,24.548,24.548S320.626,361.717,320.626,348.18z M303.022,246.331  L68.414,196.564c-0.23-0.05-0.461,0.07-0.561,0.291l-24.418,54.937c-0.04,0.08-0.11,0.24,0.04,0.471  c0.15,0.23,0.331,0.23,0.421,0.23H71.64c0.04,0,0.08,0.01,0.12,0.01l1.232-1.403c0.01,0,0.01-0.01,0.02-0.02  c7.264-8.907,18.326-14.619,30.69-14.619c6.152,0,11.983,1.413,17.184,3.928l13.667,5.12l163.449,27.243  c-0.912-2.745-1.423-5.681-1.423-8.737C296.579,257.293,299.004,251.12,303.022,246.331z M265.068,323.632H161.756  c-8.426,0-16.352-3.286-22.314-9.248l-9.108-9.098c-7.034,6.413-16.382,10.33-26.632,10.33c-19.388,0-35.549-14.017-38.916-32.443  l-22.484,25.53c20.56,1.413,36.852,18.576,36.852,39.477c0,9.268-3.206,17.795-8.567,24.548h194.48  c-5.36-6.753-8.567-15.28-8.567-24.548C256.501,338.912,259.707,330.385,265.068,323.632z M262.232,222.314l-19.668-58.995h-98.783  c-0.281,0-0.501,0.22-0.501,0.501v32.063c0,0.401-0.04,0.792-0.1,1.182L262.232,222.314z M161.756,308.603h98.432l-118.742-44.467  c1.192,3.757,1.834,7.755,1.834,11.903c0,6.102-1.393,11.893-3.868,17.063l10.651,10.661  C153.189,306.879,157.337,308.603,161.756,308.603z M237.554,148.29l-3.006-9.018H119.734c-9.118,0-16.532,7.414-16.532,16.532  v32.063c0,0.24-0.01,0.471-0.04,0.701l25.089,5.32V163.82c0-8.567,6.964-15.53,15.53-15.53H237.554z M128.25,276.039  c0-9.519-5.451-17.795-13.396-21.863l-5.26-1.964c-1.894-0.471-3.858-0.721-5.892-0.721c-13.536,0-24.548,11.012-24.548,24.548  c0,13.536,11.011,24.548,24.548,24.548S128.25,289.576,128.25,276.039z M64.125,348.18c0-13.536-11.012-24.548-24.548-24.548  c-5.541,0-10.661,1.844-14.769,4.96l-1.613,1.824c-0.621,0.701-1.343,1.262-2.134,1.673c-3.747,4.308-6.032,9.939-6.032,16.091  c0,13.536,11.012,24.548,24.548,24.548S64.125,361.717,64.125,348.18z M296.078,340.665c-1.974,0-3.918,0.802-5.31,2.204  c-1.403,1.393-2.204,3.336-2.204,5.31c0,1.974,0.802,3.918,2.204,5.31c1.393,1.403,3.337,2.204,5.31,2.204s3.918-0.802,5.31-2.204  c1.403-1.393,2.204-3.336,2.204-5.31c0-1.974-0.802-3.918-2.204-5.31C299.996,341.467,298.052,340.665,296.078,340.665z   M103.703,340.665c-4.148,0-7.515,3.367-7.515,7.515c0,4.148,3.367,7.515,7.515,7.515h128.25c4.148,0,7.515-3.367,7.515-7.515  c0-4.148-3.367-7.515-7.515-7.515H103.703z M103.703,268.525c-1.984,0-3.918,0.802-5.31,2.204c-1.403,1.393-2.204,3.326-2.204,5.31  c0,1.974,0.802,3.918,2.204,5.31c1.393,1.403,3.337,2.204,5.31,2.204c1.974,0,3.918-0.802,5.31-2.204  c1.403-1.393,2.204-3.336,2.204-5.31c0-1.974-0.802-3.918-2.204-5.31C107.62,269.326,105.676,268.525,103.703,268.525z   M39.577,340.665c-1.974,0-3.918,0.802-5.31,2.204c-1.403,1.393-2.204,3.336-2.204,5.31c0,1.974,0.802,3.918,2.204,5.31  c1.393,1.403,3.337,2.204,5.31,2.204c1.974,0,3.918-0.802,5.31-2.204c1.403-1.393,2.204-3.336,2.204-5.31  c0-1.974-0.802-3.918-2.204-5.31C43.495,341.467,41.551,340.665,39.577,340.665z" /></g> </svg>
