<?xml-stylesheet type="text/css" href="../css/style.css"?><svg xmlns="http://www.w3.org/2000/svg" viewBox="0 0 512 512" width="512" height="512"><path d="M15.53 323.631H307.6V143.78a3.51 3.51 0 0 0-3.507-3.507H15.53a3.51 3.51 0 0 0-3.507 3.507v176.344a3.512 3.512 0 0 0 3.507 3.507zm24.047-32.063h240.47c2.486 0 4.509 2.023 4.509 4.509s-2.023 4.509-4.509 4.509H39.577a4.514 4.514 0 0 1-4.509-4.509 4.514 4.514 0 0 1 4.509-4.509zm240.47-23.045H39.577c-2.486 0-4.509-2.023-4.509-4.509s2.023-4.509 4.509-4.509h240.47a4.514 4.514 0 0 1 4.509 4.509 4.514 4.514 0 0 1-4.509 4.509zm0-32.062H39.577a4.514 4.514 0 0 1-4.509-4.509 4.514 4.514 0 0 1 4.509-4.509h240.47a4.514 4.514 0 0 1 4.509 4.509 4.514 4.514 0 0 1-4.509 4.509zm0-32.063H39.577a4.514 4.514 0 0 1-4.509-4.509 4.514 4.514 0 0 1 4.509-4.509h240.47a4.514 4.514 0 0 1 4.509 4.509 4.514 4.514 0 0 1-4.509 4.509zm0-32.063H39.577a4.514 4.514 0 0 1-4.509-4.509 4.514 4.514 0 0 1 4.509-4.509h240.47a4.514 4.514 0 0 1 4.509 4.509 4.514 4.514 0 0 1-4.509 4.509z" data-original="#DCDBDE" data-old_color="#ffffff" fill="#fff"/><path d="M280.047 160.312c4.148 0 7.515 3.367 7.515 7.515s-3.367 7.515-7.515 7.515H39.577c-4.148 0-7.515-3.367-7.515-7.515s3.367-7.515 7.515-7.515h240.47zm0 32.062c4.148 0 7.515 3.367 7.515 7.515s-3.367 7.515-7.515 7.515H39.577c-4.148 0-7.515-3.367-7.515-7.515s3.367-7.515 7.515-7.515h240.47zm0 32.063c4.148 0 7.515 3.367 7.515 7.515s-3.367 7.515-7.515 7.515H39.577c-4.148 0-7.515-3.367-7.515-7.515s3.367-7.515 7.515-7.515h240.47zm0 32.063a7.518 7.518 0 0 1 7.515 7.515 7.518 7.518 0 0 1-7.515 7.515H39.577a7.518 7.518 0 0 1-7.515-7.515 7.518 7.518 0 0 1 7.515-7.515h240.47zm0 32.062a7.518 7.518 0 0 1 7.515 7.515 7.518 7.518 0 0 1-7.515 7.515H39.577a7.518 7.518 0 0 1-7.515-7.515 7.518 7.518 0 0 1 7.515-7.515h240.47z" class="truck"/><path d="M499.977 264.847l-1.676-4.339h-81.987c-15.746 0-28.556-12.81-28.556-28.556v-40.078a4.514 4.514 0 0 1 4.509-4.509h77.923l-2.084-5.377c-4.059-10.568-14.395-17.669-25.72-17.669h-66.15c-6.353 0-11.522 5.169-11.522 11.523v147.789h43.585c26.224 0 48.631 19.59 52.119 45.568l.407 3.033 3.025-.461c.199-.03.388-.046.559-.046h32.063a3.51 3.51 0 0 0 3.507-3.507v-27.554h-11.522c-6.906 0-12.524-5.618-12.524-12.524v-8.016c0-6.906 5.618-12.524 12.524-12.524h11.522v-42.753z" data-original="#EE8A68" class="active-path" data-old_color="#ffffff" fill="#fff"/><path d="M502.133 302.462v-33.588l-2.127-8.869H460.93c5.897 35.593-15.029 78.47-15.029 78.47s14.577 20.423 16.348 31.555l.508 3.195h34.953a4.428 4.428 0 0 0 4.423-4.423v-66.34zM442.76 189.668h27.786l-2.832-6.61-.094-.203.021.033c-4.587-11.944-18.563-29.234-41.31-21.977 6.392 8.917 13.73 18.585 16.429 28.757z" data-original="#D67153" data-old_color="#ffffff" fill="#fff"/><path d="M485.448 317.898v12.468c0 .406.374.78.78.78h13.248v-14.027h-13.248c-.406-.001-.78.373-.78.779z" data-original="#EDEDEE" data-old_color="#ffffff" fill="#fff"/><path d="M396.775 231.952c0 10.773 8.765 19.538 19.538 19.538h78.521l-21.188-55.108h-76.871v35.57zm11.522 100.696c-24.033 0-43.585 19.552-43.585 43.585s19.552 43.585 43.585 43.585 43.585-19.552 43.585-43.585-19.552-43.585-43.585-43.585zm20.541 43.586c0 11.326-9.214 20.54-20.54 20.54s-20.54-9.214-20.54-20.54 9.214-20.54 20.54-20.54c1.965 0 3.623 1.272 4.239 3.029a18.069 18.069 0 0 1 13.272 13.272c1.757.615 3.029 2.273 3.029 4.239z" data-original="#504B5A" data-old_color="#ffffff" fill="#fff"/><path d="M412.537 358.722a17.96 17.96 0 0 0-4.239-.524c-9.944 0-18.035 8.091-18.035 18.035s8.091 18.035 18.035 18.035 18.035-8.091 18.035-18.035c0-1.463-.194-2.877-.524-4.239a18.067 18.067 0 0 0-13.272-13.272z" data-original="#DCDBDE" data-old_color="#ffffff" fill="#fff"/><path d="M372.387 337.849l5.554-5.2H182.152l5.554 5.2c8.829 8.266 14.581 19.373 16.199 31.275l.354 2.601h15.171v-3.507c0-11.326 9.214-20.54 20.54-20.54h48.094c11.326 0 20.54 9.214 20.54 20.54v3.507h47.232l.354-2.601c1.616-11.903 7.369-23.009 16.197-31.275z" data-original="#736F7B" data-old_color="#ffffff" fill="#fff"/><path data-original="#A7A5AC" data-old_color="#ffffff" fill="#fff" d="M355.695 175.842l.01-.501v-3.006h-39.087v151.296h39.077zm-67.632 180.853h-48.094c-6.353 0-11.523 5.169-11.523 11.523v16.031c0 6.353 5.169 11.522 11.523 11.522h48.094c6.353 0 11.522-5.169 11.522-11.522v-16.031c0-6.355-5.169-11.523-11.522-11.523zm-44.587 19.539a4.57 4.57 0 0 1 1.333-3.192c.818-.825 2.005-1.317 3.176-1.317s2.36.492 3.192 1.333a4.562 4.562 0 0 1 1.317 3.176 4.57 4.57 0 0 1-1.333 3.192c-.818.825-2.005 1.317-3.176 1.317s-2.36-.492-3.192-1.333a4.555 4.555 0 0 1-1.317-3.176z"/><path d="M151.796 332.648c-24.033 0-43.585 19.552-43.585 43.585s19.552 43.585 43.585 43.585 43.585-19.552 43.585-43.585-19.552-43.585-43.585-43.585zm20.541 43.586c0 11.326-9.214 20.54-20.54 20.54s-20.54-9.214-20.54-20.54 9.214-20.54 20.54-20.54c1.965 0 3.623 1.272 4.239 3.029a18.069 18.069 0 0 1 13.272 13.272c1.757.615 3.029 2.273 3.029 4.239z" data-original="#504B5A" data-old_color="#ffffff" fill="#fff"/><path d="M156.036 358.722a17.953 17.953 0 0 0-4.239-.524c-9.944 0-18.035 8.091-18.035 18.035s8.091 18.035 18.035 18.035 18.035-8.091 18.035-18.035c0-1.463-.194-2.877-.524-4.239a18.067 18.067 0 0 0-13.272-13.272z" data-original="#DCDBDE" data-old_color="#ffffff" fill="#fff"/><path d="M55.609 332.648c-24.033 0-43.585 19.552-43.585 43.585s19.552 43.585 43.585 43.585 43.585-19.552 43.585-43.585-19.552-43.585-43.585-43.585zm20.54 43.586c0 11.326-9.214 20.54-20.54 20.54s-20.54-9.214-20.54-20.54 9.214-20.54 20.54-20.54c1.965 0 3.623 1.272 4.239 3.029a18.067 18.067 0 0 1 13.272 13.272c1.757.615 3.029 2.273 3.029 4.239z" data-original="#504B5A" data-old_color="#ffffff" fill="#fff"/><path d="M59.848 358.722a17.96 17.96 0 0 0-4.239-.524c-9.944 0-18.035 8.091-18.035 18.035s8.091 18.035 18.035 18.035 18.035-8.091 18.035-18.035c0-1.463-.194-2.877-.524-4.239a18.067 18.067 0 0 0-13.272-13.272z" data-original="#DCDBDE" data-old_color="#ffffff" fill="#fff"/><path d="M459.569 234.228a23.08 23.08 0 0 0-.177-1.2c-3.091-15.11-9.398-29.485-19.374-41.304l-48.085-.794-.665 40.296c-.261 15.756 14.088 28.813 31.982 29.109l38.384.674c.887.015-1.337-21.237-2.065-26.781z" data-original="#736F7B" data-old_color="#ffffff" fill="#fff"/><path d="M512 264.014v104.204c0 8.567-6.964 15.53-15.53 15.53h-32.063c-.341 0-.681-.03-1.012-.08-3.647 27.163-26.963 48.174-55.098 48.174-28.115 0-51.4-20.971-55.088-48.094h-41.601v.501c0 12.985-10.561 23.546-23.546 23.546h-48.094c-12.985 0-23.546-10.561-23.546-23.546v-.501h-9.539c-3.687 27.123-26.973 48.094-55.088 48.094-20.51 0-38.455-11.172-48.094-27.744-9.639 16.572-27.584 27.744-48.094 27.744C24.949 431.842 0 406.893 0 376.234c0-15.991 6.793-30.429 17.644-40.579H15.53c-8.567 0-15.53-6.964-15.53-15.53V143.78c0-8.567 6.964-15.53 15.53-15.53h288.564c8.567 0 15.53 6.964 15.53 15.53v16.532h9.018v-46.651c0-4.419-1.723-8.567-4.839-11.693l-8.988-8.988a7.505 7.505 0 0 1 0-10.621 7.505 7.505 0 0 1 10.621 0l8.988 8.988c5.962 5.962 9.248 13.887 9.248 22.314v46.651h14.889c4.318-4.91 10.641-8.016 17.674-8.016h66.149c16.262 0 31.101 10.2 36.942 25.37l32.173 83.653c.02.05.03.11.05.16.06.15.11.311.15.461.03.1.06.2.08.311l.09.391.06.401c.01.1.03.21.04.321.01.16.02.311.02.471.001.059.011.119.011.179zm-15.029 104.204V343.67h-8.517c-8.567 0-15.53-6.964-15.53-15.53v-8.016c0-8.567 6.964-15.53 15.53-15.53h8.517v-39.187l-.731-1.894h-79.926c-17.404 0-31.562-14.158-31.562-31.562v-40.078a7.518 7.518 0 0 1 7.515-7.515H465.8l-.501-1.293c-3.617-9.418-12.825-15.741-22.915-15.741h-66.149c-4.699 0-8.517 3.817-8.517 8.517v144.783h40.579c28.135 0 51.451 21.011 55.098 48.174.331-.05.671-.08 1.012-.08h32.063c.28.001.501-.22.501-.5zm0-39.577v-9.018h-8.517a.523.523 0 0 0-.501.501v8.016c0 .26.24.501.501.501h8.517zm-6.513-80.157l-18.877-49.096h-71.8v32.564c0 9.118 7.414 16.532 16.532 16.532h74.145zm-41.581 127.75c0-22.374-18.206-40.579-40.579-40.579s-40.579 18.206-40.579 40.579 18.206 40.579 40.579 40.579 40.579-18.206 40.579-40.579zm-78.544-40.58H189.761c9.118 8.537 15.36 20.089 17.123 33.065h9.539v-.501c0-12.985 10.561-23.546 23.546-23.546h48.094c12.985 0 23.546 10.561 23.546 23.546v.501h41.601c1.763-12.975 8.006-24.528 17.123-33.065zm-17.644-159.812c0-.17.01-.331.01-.501h-33.075v145.284h33.065V175.842zm-48.094 144.783V143.78a.496.496 0 0 0-.501-.501H15.53a.496.496 0 0 0-.501.501v176.344c0 .281.22.501.501.501h289.065zm-8.016 63.624v-16.031c0-4.699-3.817-8.517-8.517-8.517h-48.094c-4.699 0-8.517 3.817-8.517 8.517v16.031c0 4.699 3.817 8.517 8.517 8.517h48.094c4.7 0 8.517-3.818 8.517-8.517zm-104.203-8.015c0-22.374-18.206-40.579-40.579-40.579s-40.579 18.206-40.579 40.579 18.206 40.579 40.579 40.579 40.579-18.206 40.579-40.579zm-78.544-40.58h-20.26a55.83 55.83 0 0 1 10.13 12.715 55.88 55.88 0 0 1 10.13-12.715zm-17.644 40.58c0-22.374-18.206-40.579-40.579-40.579S15.03 353.861 15.03 376.234s18.206 40.579 40.579 40.579 40.579-18.206 40.579-40.579zm320.626 0c0 4.699-3.817 8.517-8.517 8.517s-8.517-3.817-8.517-8.517 3.817-8.517 8.517-8.517a7.518 7.518 0 0 0 7.515-7.515 7.518 7.518 0 0 0-7.515-7.515c-12.985 0-23.546 10.561-23.546 23.546s10.561 23.546 23.546 23.546 23.546-10.561 23.546-23.546a7.518 7.518 0 0 0-7.515-7.515 7.519 7.519 0 0 0-7.514 7.516zm-168.83-7.515a7.543 7.543 0 0 0-5.31 2.204 7.54 7.54 0 0 0-2.204 5.31c0 1.974.802 3.918 2.204 5.31 1.393 1.403 3.337 2.204 5.31 2.204s3.918-.802 5.31-2.204a7.542 7.542 0 0 0 2.204-5.31 7.543 7.543 0 0 0-2.204-5.31 7.539 7.539 0 0 0-5.31-2.204zm-87.671 7.515c0 4.699-3.817 8.517-8.517 8.517-4.699 0-8.517-3.817-8.517-8.517s3.817-8.517 8.517-8.517a7.518 7.518 0 0 0 7.515-7.515 7.518 7.518 0 0 0-7.515-7.515c-12.985 0-23.546 10.561-23.546 23.546s10.561 23.546 23.546 23.546 23.546-10.561 23.546-23.546c0-4.148-3.367-7.515-7.515-7.515s-7.514 3.367-7.514 7.516zm-96.188 0c0 4.699-3.817 8.517-8.517 8.517s-8.517-3.817-8.517-8.517 3.817-8.517 8.517-8.517a7.518 7.518 0 0 0 7.515-7.515 7.518 7.518 0 0 0-7.515-7.515c-12.985 0-23.546 10.561-23.546 23.546s10.561 23.546 23.546 23.546 23.546-10.561 23.546-23.546c0-4.148-3.367-7.515-7.515-7.515s-7.514 3.367-7.514 7.516z" class="truck"/></svg>