<?xml-stylesheet type="text/css" href="../css/style.css"?><svg xmlns="http://www.w3.org/2000/svg" viewBox="0 0 512 512" width="512" height="512"><path d="M12.023 202.763v136.299a27.532 27.532 0 0 0 16.703 25.327l6.342 2.713v-129.89c0-7.354-2.868-14.273-8.075-19.479l-14.97-14.97z" data-original="#EE8A68" class="active-path" data-old_color="#ffffff" fill="#fff"/><path d="M178.118 251.491h29.337l.905-5.872-40.898-12.911-.759 5.739c-.449 3.342.529 6.579 2.752 9.115 2.222 2.533 5.299 3.929 8.663 3.929z" data-original="#504B5A" data-old_color="#ffffff" fill="#fff"/><path d="M178.455 150.277l-5.474 41.088L298.43 230.98l-11.341-90.706h-97.208c-5.755 0-10.668 4.3-11.426 10.003z" data-original="#736F7B" data-old_color="#ffffff" fill="#fff"/><path d="M268.023 154.301c0 22.479-5.763 43.622-15.899 62.056l46.305 14.623-11.341-90.706H267.26c.5 4.609.763 9.287.763 14.027zM127.75 316.618c-32.873 0-59.616 26.743-59.616 59.616s26.743 59.616 59.616 59.616 59.616-26.743 59.616-59.616-26.743-59.616-59.616-59.616zm31.062 47.091a4.498 4.498 0 0 1 4.352 3.389 36.493 36.493 0 0 1 1.156 9.137c0 20.165-16.406 36.571-36.571 36.571S91.178 396.4 91.178 376.235s16.406-36.571 36.571-36.571c3.095 0 6.169.389 9.142 1.158a4.47 4.47 0 0 1 3.344 4.804 33.242 33.242 0 0 1 18.118 18.112c.154-.015.307-.029.459-.029zm145.282-47.091c-32.873 0-59.616 26.743-59.616 59.616s26.743 59.616 59.616 59.616 59.616-26.743 59.616-59.616-26.743-59.616-59.616-59.616zm29.684 47.327c.084-.027.161-.068.247-.09a4.5 4.5 0 0 1 5.484 3.244 36.54 36.54 0 0 1 1.156 9.137c0 20.165-16.406 36.571-36.571 36.571s-36.571-16.406-36.571-36.571 16.406-36.571 36.571-36.571c3.095 0 6.169.389 9.142 1.158a4.47 4.47 0 0 1 2.758 2.074 4.45 4.45 0 0 1 .522 3.133 33.241 33.241 0 0 1 17.262 17.915z" data-original="#625D6B" data-old_color="#ffffff" fill="#fff"/><path d="M140.236 345.626a32.89 32.89 0 0 0-12.486-2.456c-18.232 0-33.065 14.833-33.065 33.065S109.518 409.3 127.75 409.3s33.065-14.833 33.065-33.065c0-4.421-.879-8.638-2.46-12.496a33.245 33.245 0 0 0-18.119-18.113zm176.28.404a32.86 32.86 0 0 0-13.424-2.86c-18.232 0-33.065 14.833-33.065 33.065S284.86 409.3 303.092 409.3s33.065-14.833 33.065-33.065c0-4.342-.85-8.488-2.379-12.29a33.241 33.241 0 0 0-17.262-17.915zm-56.042-57.423l-.006.044.005-.035zm23.121.04l-.005-.039v.008z" data-original="#D67153" data-old_color="#ffffff" fill="#fff"/><path d="M304.094 307.601c17.072 0 33.452 6.341 46.122 17.855l8.487 7.712-13.472-40.596h-57.168a4.518 4.518 0 0 1-4.465-3.901l.513 3.4h-24.16l.513-3.401a4.517 4.517 0 0 1-4.465 3.902H100.195v20.663l4.039-1.478a68.204 68.204 0 0 1 23.515-4.156c37.845 0 68.634 30.789 68.634 68.634l-.01.501v3.006h39.096v-3.006c0-.115-.01-.501-.01-.501.001-37.845 30.79-68.634 68.635-68.634z" data-original="#D67153" data-old_color="#ffffff" fill="#fff"/><path d="M284.112 292.07l-.513-3.4-.004-.024-.005-.031v-.008a3.668 3.668 0 0 1-.036-.545 4.514 4.514 0 0 1 4.509-4.509h20.921l.905-5.872-54.377-17.173h-77.393a20.55 20.55 0 0 1-15.452-7.009 20.584 20.584 0 0 1-4.905-16.249l.976-7.304-30.508-9.627-2.426 21.92a20.527 20.527 0 0 1-20.418 18.269h-5.19v23.045H256a4.514 4.514 0 0 1 4.509 4.509c0 .207-.012.385-.035.544l-.001.009-.005.035-.003.019-.513 3.401h24.16zm143.68 47.242L394.103 406.7c-.587 1.125-.525 2.427.142 3.45a3.44 3.44 0 0 0 2.971 1.655h97.02l-66.444-72.493zM169.515 149.078c1.355-10.161 10.11-17.822 20.366-17.822h96.075l-1.871-15.029H157.287a19.519 19.519 0 0 0-19.419 17.383l-5.012 45.087 31.397 9.917 5.262-39.536zM89.837 319.061l1.341-.892V209.85c0-5.21-2.03-10.117-5.72-13.818l-34.009-34.01c-3.698-3.686-8.605-5.716-13.815-5.716h-25.61v33.699l21.351 21.35c6.907 6.908 10.712 16.091 10.712 25.86v131.006c0 .13-.002.261-.018.391l-.272 2.236 15.195 6.514.201-4.332c1.008-21.7 12.464-41.875 30.644-53.969z" data-original="#EE8A68" class="active-path" data-old_color="#ffffff" fill="#fff"/><path d="M187.366 87.671c0-6.353-5.169-11.523-11.523-11.523s-11.523 5.169-11.523 11.523v19.538h23.045V87.671zm183.863 181.002c-1.135-3.647-3.963-6.498-7.556-7.624L82.424 172.225l-3.031 4.991 12.438 12.448a28.256 28.256 0 0 1 6.716 10.576l.502 1.406L348.761 280.5a4.523 4.523 0 0 1 2.919 2.88l37.51 112.988 14.251-28.516-32.212-99.179z" data-original="#D67153" data-old_color="#ffffff" fill="#fff"/><path d="M47.092 237.213v131.006c0 .25-.01.501-.04.751l9.138 3.918c1.092-23.496 13.546-44.066 31.982-56.33V209.85c0-4.419-1.723-8.567-4.839-11.693l-34.006-34.006a16.456 16.456 0 0 0-11.693-4.839H15.029v29.448l20.47 20.47c7.475 7.473 11.593 17.413 11.593 27.983zm200.391 139.022c0 31.211 25.4 56.611 56.611 56.611s56.611-25.4 56.611-56.611-25.4-56.611-56.611-56.611-56.611 25.4-56.611 56.611zm-176.344 0c0 31.211 25.4 56.611 56.611 56.611s56.611-25.4 56.611-56.611-25.4-56.611-56.611-56.611-56.611 25.4-56.611 56.611zm439.468 35.74c.08.1.15.2.21.311.07.1.13.21.19.311.06.11.12.21.18.321.05.11.11.22.16.341.05.11.09.22.13.331.05.12.09.23.13.351.04.11.07.23.11.341l.09.361c.02.12.05.24.07.361.02.12.04.25.06.381l.03.341c.01.14.02.271.02.411 0 .06.01.12.01.18 0 .05-.01.1-.01.16 0 .13-.01.26-.02.391l-.03.361c-.02.12-.03.24-.05.361-.03.12-.05.25-.08.371-.02.11-.05.22-.08.331-.03.13-.07.25-.11.381-.04.11-.08.21-.12.321a5.26 5.26 0 0 1-.3.682c-.05.11-.1.21-.16.321-.06.11-.13.22-.2.321-.06.1-.12.2-.19.291-.07.11-.15.21-.22.311-.08.09-.15.19-.23.281-.08.09-.16.18-.24.26-.09.1-.19.2-.281.291-.04.03-.07.07-.11.11l-.15.12c-.09.08-.19.16-.281.24-.1.07-.2.15-.301.22-.09.06-.18.13-.281.19-.11.07-.21.13-.321.2-.1.05-.19.11-.291.16-.12.06-.23.11-.351.16-.1.05-.2.09-.301.13-.12.05-.24.1-.371.14-.1.03-.2.07-.301.1-.13.04-.261.07-.391.1-.1.02-.2.05-.311.07-.14.03-.291.05-.441.07l-.271.03c-.24.03-.481.04-.721.04h-107.27c-5.421 0-10.36-2.755-13.206-7.364-.18-.291-.351-.591-.511-.892-.611-.721-1.122-1.553-1.433-2.505l-7.665-23.085c-6.433 32.944-35.509 57.893-70.307 57.893-34.167 0-62.813-24.047-69.927-56.11h-36.491c-7.114 32.063-35.76 56.11-69.927 56.11-34.878 0-63.995-25.059-70.337-58.113l-33.425-14.318A39.567 39.567 0 0 1 0 339.062V151.797a7.518 7.518 0 0 1 7.515-7.515h30.119c8.226 0 15.961 3.136 21.873 8.827a7.381 7.381 0 0 1 3.186.281l58.815 18.576 4.409-39.688c1.593-14.318 12.555-25.48 26.382-27.674V87.671c0-12.985 10.561-23.546 23.546-23.546s23.546 10.561 23.546 23.546v16.532h112.72c4.148 0 7.515 3.367 7.515 7.515s-3.367 7.515-7.515 7.515h-15.53l13.967 111.788c.03.22.04.441.05.651l56.691 17.905a23.55 23.55 0 0 1 15.39 15.43l19.308 59.446 7.795 23.997 7.825-15.651c.02-.03.03-.06.05-.09l-6.883-7.505a7.339 7.339 0 0 1-1.693-3.056 7.515 7.515 0 0 1 2.154-7.565c3.056-2.805 7.815-2.595 10.621.461l88.172 96.188c.04.05.08.1.12.14.09.11.17.21.25.321.079.091.149.181.209.282zm-113.832-3.898c-.05.09-.13.25.02.481.15.24.321.24.421.24h90.186l-58.875-64.235-31.752 63.514zM15.029 339.062a24.532 24.532 0 0 0 14.879 22.564l2.154.922V237.213c0-6.553-2.555-12.715-7.194-17.354l-9.839-9.839v129.042zm334.634-61.43a7.53 7.53 0 0 1 4.87 4.799l35.219 106.087 10.45-20.911-31.842-98.041c-.852-2.735-2.936-4.819-5.591-5.651l-281.25-88.823 12.434 12.444a31.396 31.396 0 0 1 7.425 11.693l248.285 78.403zM171.715 245.58a8.407 8.407 0 0 0 6.403 2.906h29.337l-37.483-11.833-.291 2.194a8.394 8.394 0 0 0 2.034 6.733zm116.348 34.968h20.921l-53.935-17.033h-76.93a23.553 23.553 0 0 1-17.715-8.036 23.576 23.576 0 0 1-5.621-18.626l.641-4.799-24.608-7.765-2.024 18.286c-1.333 11.933-11.392 20.941-23.406 20.941h-2.184v17.033H256a7.518 7.518 0 0 1 7.515 7.515c0 .341-.02.671-.07 1.002-.491 3.677-3.637 6.513-7.445 6.513H103.202v13.356a71.284 71.284 0 0 1 24.548-4.338c39.507 0 71.64 32.133 71.64 71.64 0 .17-.01.331-.01.501h33.085c0-.17-.01-.331-.01-.501 0-39.507 32.133-71.64 71.64-71.64 18.516 0 35.409 7.064 48.144 18.636l-9.178-27.654h-54.997c-3.807 0-6.954-2.836-7.445-6.513a6.659 6.659 0 0 1-.07-1.002 7.516 7.516 0 0 1 7.514-7.516zm-182.677-32.063a8.508 8.508 0 0 0 8.467-7.575l2.355-21.241-13.005-4.108v32.924h2.183zm189.48-21.782l-10.43-83.423h-94.555c-4.248 0-7.885 3.176-8.446 7.394l-5.14 38.585 118.571 37.444zm-12.314-98.453l-1.122-9.018H157.287c-8.436 0-15.5 6.322-16.432 14.709l-4.739 42.633 25.63 8.096 4.789-35.99c1.553-11.643 11.593-20.43 23.346-20.43h92.671zm-98.192-24.046V87.671c0-4.699-3.817-8.517-8.517-8.517-4.699 0-8.517 3.817-8.517 8.517v16.532h17.034zm158.059 262.142a39.505 39.505 0 0 1 1.252 9.889c0 21.823-17.755 39.577-39.577 39.577s-39.577-17.755-39.577-39.577c0-21.823 17.755-39.577 39.577-39.577 3.347 0 6.673.421 9.889 1.252 4.018 1.032 6.443 5.13 5.401 9.148-1.032 4.018-5.13 6.443-9.148 5.401a24.745 24.745 0 0 0-6.142-.772c-13.536 0-24.548 11.012-24.548 24.548 0 13.536 11.012 24.548 24.548 24.548s24.548-11.012 24.548-24.548c0-2.084-.261-4.148-.771-6.142-1.042-4.018 1.383-8.116 5.401-9.148 4.017-1.042 8.115 1.383 9.147 5.401zm-176.345 0a39.505 39.505 0 0 1 1.252 9.889c0 21.823-17.755 39.577-39.577 39.577s-39.577-17.755-39.577-39.577c0-21.823 17.755-39.577 39.577-39.577 3.347 0 6.673.421 9.889 1.252 4.018 1.032 6.443 5.13 5.401 9.148-1.032 4.018-5.13 6.443-9.148 5.401a24.745 24.745 0 0 0-6.142-.772c-13.536 0-24.548 11.012-24.548 24.548 0 13.536 11.012 24.548 24.548 24.548s24.548-11.012 24.548-24.548c0-2.084-.26-4.148-.772-6.142-1.042-4.018 1.383-8.116 5.401-9.148 4.018-1.042 8.116 1.383 9.148 5.401z" class="truck"/></svg>