<?xml-stylesheet type="text/css" href="../css/style.css"?><svg xmlns="http://www.w3.org/2000/svg" viewBox="0 0 512 512" width="512" height="512"><path d="M335.26 305.162l4.404 2.312v-50.973h-23.045v41.553l2.202.61a83.282 83.282 0 0 1 16.439 6.498z" data-original="#504B5A" class="active-path" data-old_color="#ffffff" fill="#fff"/><path d="M339.663 83.663a3.51 3.51 0 0 0-3.507-3.507h-19.538v167.327h23.045V83.663z" data-original="#625D6B" data-old_color="#ffffff" fill="#fff"/><path d="M235.46 380.243c0-33.425 27.194-60.618 60.618-60.618 14.079 0 27.809 4.96 38.659 13.966l4.926 4.088V318.4l-1.322-.895c-12.492-8.445-27.107-12.91-42.264-12.91-41.712 0-75.648 33.935-75.648 75.648 0 2.821.173 5.718.53 8.856l.303 2.666h15.226l-.466-3.413a60.244 60.244 0 0 1-.562-8.109z" data-original="#D67153" data-old_color="#ffffff" fill="#fff"/><path d="M296.078 328.642c-28.453 0-51.601 23.148-51.601 51.601s23.148 51.601 51.601 51.601 51.601-23.148 51.601-51.601-23.148-51.601-51.601-51.601zm24.487 47.136c2.277.224 4.069 2.129 4.069 4.465 0 15.746-12.81 28.556-28.556 28.556s-28.556-12.81-28.556-28.556 12.81-28.556 28.556-28.556a4.51 4.51 0 0 1 4.503 4.45c4.627.852 9.188 2.928 13.398 6.136l.324.246.246.324c3.102 4.071 5.118 8.485 6.016 12.935zm-103.402-88.837l26.676 26.665 2.08-1.532c8.313-6.124 17.539-10.63 27.422-13.392l2.196-.614v-45.505c0-.417-.022-.846-.045-1.262l-.173-3.035-3.032.206c-.083.006-.167.013-.257.013H119.733c-15.746 0-28.556-12.81-28.556-28.556v-99.695H71.64c-6.353 0-11.523 5.169-11.523 11.523V271.53h119.854c14.054 0 27.263 5.473 37.192 15.411z" data-original="#504B5A" class="active-path" data-old_color="#ffffff" fill="#fff"/><path d="M119.734 239.468h19.538v-91.679c0-2.486 2.023-4.509 4.509-4.509s4.509 2.023 4.509 4.509v91.679h123.948l-59.564-103.169c-.058-.099-.107-.204-.157-.308-4.532-9.572-14.306-15.757-24.9-15.757h-87.421v99.695c0 10.774 8.765 19.539 19.538 19.539z" data-original="#8D8A94" data-old_color="#ffffff" fill="#fff"/><path d="M218.928 234.458c0 1.676-.021 3.346-.052 5.01h53.362l-59.564-103.169c-.058-.099-.107-.204-.157-.308-4.224-8.923-13.005-14.897-22.758-15.668 18.063 29.619 29.169 69.833 29.169 114.135z" data-original="#736F7B" data-old_color="#ffffff" fill="#fff"/><path d="M211.413 380.243c0-21.92 8.374-42.715 23.58-58.556l2.039-2.125-26.247-26.248c-8.221-8.231-19.163-12.765-30.813-12.765H39.577c-10.773 0-19.538 8.765-19.538 19.538v49.028l4.771-3.461c9.017-6.541 19.666-9.998 30.798-9.998 29.005 0 52.603 23.597 52.603 52.603 0 0-.01.386-.01.501v3.006h103.946l-.329-3.303a83.919 83.919 0 0 1-.405-8.22z" data-original="#EE8A68" data-old_color="#ffffff" fill="#fff"/><path d="M237.032 319.561l-25.231-25.232c-11.478 46.324-35.883 82.465-66.237 97.436h66.584l-.329-3.303a83.251 83.251 0 0 1-.406-8.219c0-21.92 8.374-42.715 23.58-58.556l2.039-2.126z" data-original="#D67153" data-old_color="#ffffff" fill="#fff"/><path d="M55.609 344.673c-24.033 0-43.585 19.552-43.585 43.585s19.552 43.585 43.585 43.585 43.585-19.552 43.585-43.585-19.552-43.585-43.585-43.585zm20.54 43.585c0 11.326-9.214 20.54-20.54 20.54s-20.54-9.214-20.54-20.54c0-11.326 9.214-20.54 20.54-20.54 1.233 0 2.351.5 3.165 1.305 3.574.62 7.093 2.2 10.332 4.667l.324.246.246.324c2.485 3.263 4.04 6.822 4.651 10.4 1.099.822 1.822 2.122 1.822 3.598z" data-original="#504B5A" class="active-path" data-old_color="#ffffff" fill="#fff"/><path d="M69.676 374.259l-.246-.324-.324-.246c-3.239-2.467-6.758-4.046-10.332-4.667a20.07 20.07 0 0 0-3.416-.302c-7.385 0-14.01 4.113-17.292 10.735-3.458 6.98-2.346 15.317 2.974 22.301l.246.324.324.246c4.268 3.251 9.023 4.97 13.748 4.97 7.385 0 14.01-4.113 17.292-10.735 1.843-3.718 2.375-7.822 1.677-11.901-.611-3.579-2.165-7.138-4.651-10.401z" data-original="#EE8A68" data-old_color="#ffffff" fill="#fff"/><path d="M314.304 362.518l-.324-.246c-4.211-3.207-8.771-5.284-13.398-6.136a26.226 26.226 0 0 0-4.753-.442c-9.688 0-18.379 5.397-22.682 14.083-4.542 9.17-3.063 20.149 3.96 29.368l.246.324.324.246c5.649 4.303 11.925 6.578 18.151 6.578 9.688 0 18.379-5.397 22.682-14.083 2.536-5.121 3.191-10.805 2.055-16.432-.898-4.451-2.914-8.865-6.016-12.936l-.245-.324z" data-original="#D67153" data-old_color="#ffffff" fill="#fff"/><path d="M504.485 396.775A7.518 7.518 0 0 1 512 404.29a7.518 7.518 0 0 1-7.515 7.515H384.25c-8.567 0-15.53-6.964-15.53-15.53V260.008a.496.496 0 0 0-.501-.501h-16.532v56.25c.01.25.01.501 0 .751v31.672c0 .361-.03.711-.08 1.052a63.195 63.195 0 0 1 8.096 31.011c0 35.079-28.546 63.624-63.624 63.624-26.762 0-49.707-16.622-59.085-40.078H108.993c-6.733 23.125-28.115 40.078-53.384 40.078C24.949 443.867 0 418.918 0 388.258a55.204 55.204 0 0 1 8.487-29.468 7.441 7.441 0 0 1-.471-2.595v-56.11c0-17.404 14.158-31.562 31.562-31.562h8.517V131.757c0-12.985 10.561-23.546 23.546-23.546h115.977c15.11 0 29.057 8.757 35.63 22.344l59.015 102.22a39.669 39.669 0 0 1 5.3 19.789v40.419a88.467 88.467 0 0 1 8.517-.411c2.866 0 5.701.15 8.517.421V83.162h-16.532c-4.148 0-7.515-3.367-7.515-7.515s3.367-7.515 7.515-7.515h48.094c8.567 0 15.53 6.964 15.53 15.53v160.814h16.532c8.567 0 15.53 6.964 15.53 15.53v136.266c0 .281.22.501.501.501h120.233zm-167.827-65.498v-11.282c-12.003-8.116-25.951-12.394-40.579-12.394-40.058 0-72.642 32.584-72.642 72.642 0 2.856.19 5.701.511 8.517h9.098a62.838 62.838 0 0 1-.591-8.517c0-35.079 28.546-63.624 63.624-63.624 15.409-.001 29.557 5.51 40.579 14.658zm0-28.776v-42.994h-17.033v36.261a86.074 86.074 0 0 1 17.033 6.733zm0-58.024V83.663a.496.496 0 0 0-.501-.501h-16.532v161.315h17.033zm8.015 135.766c0-26.792-21.803-48.595-48.595-48.595s-48.595 21.803-48.595 48.595c0 26.792 21.803 48.595 48.595 48.595s48.595-21.803 48.595-48.595zm-72.141-84.455v-43.224c0-.361-.02-.731-.04-1.092-.15.01-.301.02-.461.02H119.734c-17.404 0-31.562-14.158-31.562-31.562v-96.689H71.64c-4.699 0-8.517 3.817-8.517 8.517v136.767h116.848c14.849 0 28.816 5.781 39.317 16.292l24.849 24.839a87.617 87.617 0 0 1 28.395-13.868zm-5.5-59.326l-56.951-98.643c-.1-.17-.19-.351-.281-.541-4.038-8.527-12.745-14.037-22.183-14.037h-84.415v96.689c0 9.118 7.414 16.532 16.532 16.532h16.532v-88.673c0-4.148 3.367-7.515 7.515-7.515s7.515 3.367 7.515 7.515v88.673h115.736zm-34.207 83.142l-24.167-24.167c-7.655-7.665-17.845-11.883-28.686-11.883H39.577c-9.118 0-16.532 7.414-16.532 16.532v43.134c9.158-6.643 20.41-10.571 32.564-10.571 30.66 0 55.609 24.949 55.609 55.609 0 .17-.01.331-.01.501h97.621a86.115 86.115 0 0 1-.421-8.517c-.001-23.505 9.297-44.887 24.417-60.638zM96.188 388.258c0-22.374-18.206-40.579-40.579-40.579S15.03 365.885 15.03 388.258c0 22.374 18.206 40.579 40.579 40.579s40.579-18.205 40.579-40.579zm216.423-8.015c0 9.118-7.414 16.532-16.532 16.532s-16.532-7.414-16.532-16.532 7.414-16.532 16.532-16.532a7.518 7.518 0 0 0 7.515-7.515 7.518 7.518 0 0 0-7.515-7.515c-17.404 0-31.562 14.158-31.562 31.562 0 17.404 14.158 31.562 31.562 31.562s31.562-14.158 31.562-31.562a7.518 7.518 0 0 0-7.515-7.515 7.517 7.517 0 0 0-7.515 7.515zm-248.486 8.015c0 4.699-3.817 8.517-8.517 8.517s-8.517-3.817-8.517-8.517c0-4.699 3.817-8.517 8.517-8.517a7.518 7.518 0 0 0 7.515-7.515 7.518 7.518 0 0 0-7.515-7.515c-12.985 0-23.546 10.561-23.546 23.546s10.561 23.546 23.546 23.546 23.546-10.561 23.546-23.546c0-4.148-3.367-7.515-7.515-7.515s-7.514 3.368-7.514 7.516z" class="truck"/></svg>